<?xml version="1.0" encoding="utf-8"?>
<!-- Generator: Adobe Illustrator 27.5.0, SVG Export Plug-In . SVG Version: 6.00 Build 0)  -->
<svg version="1.1" xmlns="http://www.w3.org/2000/svg" xmlns:xlink="http://www.w3.org/1999/xlink" x="0px" y="0px"
	 viewBox="0 0 1200 1200" style="enable-background:new 0 0 1200 1200;" xml:space="preserve">
<g id="bg">
	<rect style="fill:#FFFFFF;" width="1200" height="1200"/>
</g>
<g id="Layer_2">
	
		<circle style="fill:#C2CCE0;stroke:#0E69B2;stroke-width:4;stroke-linecap:round;stroke-linejoin:round;stroke-miterlimit:10;" cx="595.515" cy="599.631" r="170.258"/>
	<path style="fill:#0E69B2;stroke:#0E69B2;stroke-width:4;stroke-linecap:round;stroke-linejoin:round;stroke-miterlimit:10;" d="
		M702.919,703.828l-8.729-3.957l-8.701-3.782l-9.009-3.691l-9.618-4.008l-9.944-3.937l-7.522-2.903l-3.618-2.892l-1.984-5.091
		l-2.404-7.809l-2.174-6.26l-3.447-1.662l-1.266-1.272l0.313-19.654l1.811-6.904l3.956-6.689l3.815-10.73l2.369-9.892l0.545-0.776
		l3.932-7.251l1.613-9.76l1.052-12.345l-2.991-2.917l-1.435-1.427l0.019-15.249l-0.291-31.852l-0.453-3.125l-4.747-9.086
		l-7.58-8.281l-15.942-12.093l-0.287-4.145c-0.063-0.915-0.653-1.709-1.51-2.035l0,0c-7.969-3.023-16.66-3.592-24.954-1.634h0
		l-12.668,3.661l-12.452,5.39l-12.912,8.838l-10.323,13.643l-2.351,10.111l-0.214,11.339l-0.294,14.105l-0.034,19.407l-1.378,1.3
		l-0.829-0.011l-2.796,2.826l0.277,3.708l0.402,6.05l0.97,7.785l4.096,11.067l1.404,1.998l1.449,5.965l2.892,12.14l7.797,11.985
		l1.156,3.957l-0.98,7.638l-1.171,13.315l-0.542,0.803l-2.13,0.363l-3.523,1.575l-2.39,7.059l-0.639,3.636l-3.238,7.404
		l-1.283,2.625l-2.52,1.059l-10.309,4.173l-8.718,3.655l-11.287,4.742l-11.47,5.245l-12.589,5.822l-16.287,8.55
		c31.16,34.534,76.262,56.243,126.439,56.243c50.419,0,95.712-21.923,126.887-56.748l-6.465-3.254L702.919,703.828z"/>
	
		<line style="fill:none;stroke:#0E69B2;stroke-width:4.9111;stroke-linecap:round;stroke-linejoin:round;stroke-miterlimit:10;stroke-dasharray:9.8222;" x1="595.515" y1="843.485" x2="595.515" y2="946.905"/>
	
		<line style="fill:none;stroke:#0E69B2;stroke-width:4.9111;stroke-linecap:round;stroke-linejoin:round;stroke-miterlimit:10;stroke-dasharray:9.8222;" x1="595.515" y1="241.552" x2="595.515" y2="344.972"/>
	
		<line style="fill:none;stroke:#0E69B2;stroke-width:4.9111;stroke-linecap:round;stroke-linejoin:round;stroke-miterlimit:10;stroke-dasharray:9.8222;" x1="409.635" y1="757.472" x2="330.803" y2="824.413"/>
	
		<line style="fill:none;stroke:#0E69B2;stroke-width:4.9111;stroke-linecap:round;stroke-linejoin:round;stroke-miterlimit:10;stroke-dasharray:9.8222;" x1="351.661" y1="599.631" x2="248.241" y2="599.631"/>
	
		<line style="fill:none;stroke:#0E69B2;stroke-width:4.9111;stroke-linecap:round;stroke-linejoin:round;stroke-miterlimit:10;stroke-dasharray:9.8222;" x1="780.775" y1="758.708" x2="859.136" y2="826.199"/>
	
		<line style="fill:none;stroke:#0E69B2;stroke-width:4.9111;stroke-linecap:round;stroke-linejoin:round;stroke-miterlimit:10;stroke-dasharray:9.8222;" x1="780.304" y1="434.55" x2="859.136" y2="367.609"/>
	
		<line style="fill:none;stroke:#0E69B2;stroke-width:4.9111;stroke-linecap:round;stroke-linejoin:round;stroke-miterlimit:10;stroke-dasharray:9.8222;" x1="409.165" y1="433.315" x2="330.803" y2="365.823"/>
	
		<line style="fill:none;stroke:#0E69B2;stroke-width:4.9111;stroke-linecap:round;stroke-linejoin:round;stroke-miterlimit:10;stroke-dasharray:9.8222;" x1="839.864" y1="599.631" x2="943.283" y2="599.631"/>
	<g>
		<g>
			<g>
				<g>
					<path style="fill:#FFE900;stroke:#FFB000;stroke-width:4;stroke-miterlimit:10;" d="M879.618,856.813
						c0.021-9.465,7.613-17.122,16.952-17.101l111.477,0.244c9.34,0.02,16.898,7.71,16.877,17.175l-0.22,100.558
						c-0.021,9.466-7.612,17.122-16.952,17.102l-111.477-0.244c-9.339-0.02-16.898-7.71-16.877-17.176L879.618,856.813z"/>
				</g>
			</g>
		</g>
		<g>
			<g>
				<g>
					<g>
						<path style="fill:#EA4C89;stroke:#CA2762;stroke-width:4;stroke-miterlimit:10;" d="M973.047,550.066
							c0.021-9.465,7.613-17.122,16.952-17.101l111.477,0.244c9.34,0.02,16.898,7.71,16.877,17.175l-0.22,100.558
							c-0.021,9.466-7.612,17.122-16.952,17.102l-111.477-0.244c-9.339-0.02-16.898-7.71-16.877-17.176L973.047,550.066z"/>
					</g>
				</g>
			</g>
			<g>
				<path style="fill:#FFFFFF;" d="M1041.985,549.986c-27.891,1.99-48.965,26.273-46.978,54.128
					c1.987,27.855,26.295,48.898,54.186,46.908c27.891-1.99,48.967-26.27,46.98-54.125
					C1094.185,569.041,1069.876,547.996,1041.985,549.986L1041.985,549.986z M1076.969,571.455
					c6.281,6.739,10.431,15.52,11.296,25.35c-1.949-0.257-10.187-1.193-19.904-0.5c-3.135,0.224-6.423,0.616-9.702,1.261
					c-0.329-0.659-0.655-1.316-0.997-1.978c-1.002-1.956-2.07-3.894-3.167-5.797
					C1069.008,582.563,1075.613,573.498,1076.969,571.455L1076.969,571.455z M1042.549,557.894
					c10.777-0.769,20.915,2.532,28.911,8.591c-1.075,1.71-6.961,10.246-20.991,16.723c-7.544-11.724-15.572-21.306-17.477-23.527
					C1036.04,558.742,1039.238,558.13,1042.549,557.894L1042.549,557.894z M1024.487,563.345
					c1.618,1.924,9.663,11.613,17.374,23.227c-18.03,6.14-34.321,7.62-38.26,7.901l-0.418,0.03
					C1005.082,581.263,1013.117,569.8,1024.487,563.345L1024.487,563.345z M1002.86,603.619c-0.025-0.351-0.044-0.703-0.059-1.055
					c0.255-0.015,0.633-0.042,1.123-0.076c5.303-0.378,23.68-2.13,42.248-9.112c1.312,2.17,2.571,4.377,3.752,6.588
					c-0.469,0.171-0.932,0.344-1.391,0.53c-20.866,8.423-31.303,27.522-32.897,30.637
					C1008.406,624.066,1003.633,614.457,1002.86,603.619L1002.86,603.619z M1048.638,643.247
					c-9.802,0.699-19.084-1.976-26.699-7.026c1.051-2.48,8.774-19.067,31.599-28.882c0.014-0.007,0.029-0.014,0.046-0.019
					c6.959,14.862,10.359,27.508,11.326,31.435C1059.983,641.251,1054.488,642.829,1048.638,643.247L1048.638,643.247z
					 M1072.306,633.997c-0.808-3.247-3.968-15.103-10.328-29.382c2.947-0.676,5.834-1.066,8.555-1.26
					c8.932-0.637,16.057,0.82,17.716,1.199C1087.149,616.333,1081.203,626.882,1072.306,633.997L1072.306,633.997z
					 M1072.306,633.997"/>
			</g>
		</g>
		<path style="fill:#FFFFFF;" d="M1008.667,935.555c-2.79-2.908-10.598,4.715-25.475-21.69c0,0-1.117-2.231,0.93-4.462
			c2.044-2.233,5.576-3.35,7.625-4.091c2.044-0.744,5.951-2.417,5.021-5.576c0,0-1.491-3.907-7.438-1.492
			c0,0-5.021,2.511-7.623-0.789c0,0,9.046-35.045-21.027-41.976c-0.508-0.116-1.029-0.224-1.56-0.323
			c-4.752-0.609-10.33-1.168-15.474,0.323c-0.512,0.118-1.009,0.242-1.5,0.375c-28.271,7.735-19.528,41.601-19.528,41.601
			c-2.604,3.3-7.627,0.789-7.627,0.789c-5.949-2.415-7.434,1.492-7.434,1.492c-0.93,3.159,2.975,4.833,5.019,5.576
			c2.045,0.742,5.578,1.858,7.623,4.091c2.045,2.231,0.932,4.462,0.932,4.462c-14.877,26.405-22.689,18.782-25.477,21.69
			c-2.44,2.546,3.376,5.529,5.864,6.111c0.358,0.081,0.642,0.116,0.829,0.093c5.767-0.744,8.555,3.161,10.788,7.625
			c0.555,0.553,1.674,1.114,2.525,1.009c0.47,0.041,0.961,0.046,1.467,0.027c2.016-0.081,4.238-0.561,6.003-0.613
			c0.433-0.004,0.855,0,1.266,0.019c0.93,0.039,1.806,0.137,2.631,0.278c0.824,0.143,1.601,0.327,2.32,0.541
			c4.988,1.527,8.893,5.989,14.113,7.969c0.729,0.242,1.454,0.458,2.158,0.646c3.528,0.955,9.56,0.955,13.088,0
			c0.704-0.188,1.431-0.404,2.156-0.646c5.222-1.98,9.129-6.442,14.119-7.969c0.719-0.213,1.489-0.398,2.314-0.541
			c0.829-0.141,1.705-0.238,2.633-0.278c0.412-0.019,0.833-0.023,1.264-0.019c1.767,0.052,3.988,0.532,6.005,0.613
			c0.505,0.019,0.996,0.015,1.465-0.027c0.853,0.106,1.97-0.456,2.529-1.009c2.229-4.464,5.017-8.369,10.782-7.625
			c0.186,0.023,0.476-0.012,0.831-0.093C1005.29,941.084,1011.109,938.101,1008.667,935.555z"/>
	</g>
	<g>
		<g>
			<g>
				<g>
					<path style="fill:#EC1924;stroke:#B81924;stroke-width:4;stroke-miterlimit:10;" d="M883.028,231.728
						c0.021-9.466,7.613-17.122,16.952-17.101l111.477,0.244c9.34,0.02,16.898,7.71,16.877,17.175l-0.22,100.558
						c-0.021,9.466-7.612,17.122-16.952,17.102l-111.477-0.244c-9.339-0.02-16.898-7.71-16.877-17.176L883.028,231.728z"/>
				</g>
			</g>
		</g>
		<g>
			<g>
				<g>
					<path style="fill:#FFFFFF;" d="M983.362,296.995c-0.834,0-1.437,0.243-1.797,0.743c-0.372,0.476-0.549,1.288-0.549,2.416
						l0,2.723l4.658,0l0-2.723c0-1.128-0.19-1.94-0.555-2.416C984.765,297.239,984.168,296.995,983.362,296.995z"/>
				</g>
				<g>
					<g>
						<path style="fill:#FFFFFF;" d="M965.2,296.902c-0.373,0-0.752,0.082-1.119,0.261c-0.366,0.172-0.726,0.454-1.085,0.824
							l-0.002,16.785c0.428,0.434,0.842,0.766,1.248,0.96c0.406,0.185,0.827,0.288,1.274,0.288c0.644,0,1.118-0.189,1.424-0.574
							c0.298-0.38,0.454-0.996,0.454-1.857l0.001-13.914c0-0.915-0.183-1.602-0.549-2.072
							C966.46,297.138,965.912,296.902,965.2,296.902z"/>
					</g>
					<g>
						<g>
							<path style="fill:#FFFFFF;" d="M988.556,275.51l-66.083-0.007c-10.508-0.001-19.024,9.718-19.025,20.457l-0.002,15.629
								c-0.001,10.741,8.513,19.449,19.021,19.45l66.083,0.007c10.509,0.001,19.024-8.705,19.025-19.446l0.002-15.629
								C1007.578,285.232,999.065,275.511,988.556,275.51z M936.356,288.678l-6.143-0.001l-0.003,31.212l-5.939-0.001l0.003-31.212
								l-6.135-0.001l0.001-5.308l18.217,0.002L936.356,288.678z M953.707,319.892l-5.267-0.001l0-2.954
								c-0.977,1.091-1.98,1.926-3.038,2.488c-1.05,0.586-2.067,0.862-3.064,0.862c-1.22,0-2.129-0.397-2.745-1.205
								c-0.61-0.804-0.929-1.997-0.929-3.614l0.002-22.525l5.267,0.001l-0.002,20.671c0,0.638,0.116,1.095,0.325,1.38
								c0.231,0.296,0.591,0.429,1.085,0.429c0.38,0,0.875-0.187,1.471-0.566c0.59-0.378,1.139-0.861,1.628-1.448l0.002-20.466
								l5.267,0.001L953.707,319.892z M972.825,314.33c0,1.904-0.414,3.365-1.241,4.388c-0.821,1.018-2.021,1.522-3.58,1.522
								c-1.037,0-1.952-0.193-2.759-0.588c-0.799-0.388-1.559-0.992-2.251-1.823l0,2.064l-5.321-0.001l0.004-36.52l5.321,0.001
								l-0.001,11.763c0.719-0.819,1.472-1.446,2.259-1.869c0.807-0.436,1.613-0.644,2.433-0.644c1.669,0,2.942,0.569,3.817,1.719
								c0.881,1.148,1.322,2.829,1.322,5.036L972.825,314.33z M991.09,307.071l-10.075-0.001l-0.001,5.076
								c0,1.418,0.17,2.404,0.516,2.954c0.346,0.551,0.942,0.819,1.789,0.819c0.875,0,1.479-0.231,1.831-0.697
								c0.339-0.471,0.522-1.49,0.522-3.076l0-1.225l5.417,0.001l0,1.382c0,2.764-0.652,4.841-1.988,6.246
								c-1.308,1.389-3.281,2.082-5.905,2.082c-2.366,0-4.229-0.737-5.579-2.222c-1.348-1.47-2.034-3.512-2.034-6.107l0.001-12.105
								c0-2.329,0.747-4.245,2.245-5.714c1.485-1.47,3.397-2.202,5.762-2.202c2.414,0,4.265,0.682,5.559,2.044
								c1.294,1.366,1.94,3.32,1.939,5.874L991.09,307.071z"/>
						</g>
						<g>
							<polygon style="fill:#FFFFFF;" points="923.183,226.91 931.126,251.21 931.124,267.146 937.801,267.146 937.803,250.456 
								945.582,226.912 938.789,226.911 934.658,242.998 934.238,242.998 929.901,226.91 							"/>
						</g>
						<g>
							<path style="fill:#FFFFFF;" d="M948.448,238.759c-1.586,1.362-2.387,3.189-2.387,5.497l-0.002,15.382
								c0,2.523,0.779,4.522,2.325,6.02c1.566,1.489,3.64,2.242,6.238,2.243c2.69,0,4.806-0.722,6.351-2.168
								c1.527-1.452,2.299-3.434,2.299-5.975l0.002-15.331c0-2.259-0.786-4.119-2.345-5.554c-1.573-1.432-3.58-2.154-6.04-2.154
								C952.197,236.719,950.048,237.401,948.448,238.759z M957.233,244.028l-0.002,16.175c0,0.792-0.245,1.42-0.712,1.877
								c-0.474,0.454-1.119,0.681-1.918,0.681c-0.787,0-1.39-0.216-1.81-0.674c-0.42-0.448-0.63-1.072-0.63-1.884l0.002-16.175
								c0-0.643,0.23-1.163,0.671-1.574c0.462-0.399,1.044-0.592,1.77-0.592c0.786,0,1.416,0.193,1.898,0.592
								C956.989,242.865,957.233,243.385,957.233,244.028z"/>
						</g>
						<g>
							<path style="fill:#FFFFFF;" d="M985.005,267.151l0.003-29.675l-5.931-0.001l-0.002,22.527
								c-0.549,0.646-1.159,1.176-1.824,1.6c-0.677,0.414-1.227,0.622-1.661,0.622c-0.555,0-0.962-0.154-1.207-0.477
								c-0.243-0.311-0.379-0.817-0.379-1.518l0.002-22.753l-5.925-0.001l-0.003,24.806c0,1.769,0.352,3.089,1.043,3.968
								c0.698,0.886,1.722,1.338,3.098,1.339c1.119,0,2.257-0.323,3.438-0.95c1.193-0.633,2.333-1.559,3.417-2.768l0,3.282
								L985.005,267.151z"/>
						</g>
					</g>
				</g>
			</g>
		</g>
	</g>
	<g>
		<g>
			<g>
				<linearGradient id="SVGID_1_" gradientUnits="userSpaceOnUse" x1="531.35" y1="1119.9923" x2="662.1817" y2="982.0612">
					<stop  offset="0.0214" style="stop-color:#F9A326"/>
					<stop  offset="0.3401" style="stop-color:#D7243E"/>
					<stop  offset="0.342" style="stop-color:#D7243F"/>
					<stop  offset="0.4376" style="stop-color:#C33269"/>
					<stop  offset="0.524" style="stop-color:#B43C88"/>
					<stop  offset="0.5974" style="stop-color:#AB429A"/>
					<stop  offset="0.6491" style="stop-color:#A844A1"/>
					<stop  offset="0.7791" style="stop-color:#8744A1"/>
					<stop  offset="1" style="stop-color:#4845A2"/>
				</linearGradient>
				<path style="fill:url(#SVGID_1_);stroke:#5B308B;stroke-width:4;stroke-miterlimit:10;" d="M521.691,998.325
					c-0.006-10.178,7.684-18.433,17.169-18.438l113.226-0.065c9.487-0.005,17.185,8.241,17.191,18.418l0.062,108.126
					c0.006,10.178-7.683,18.433-17.17,18.438l-113.226,0.065c-9.485,0.005-17.184-8.24-17.19-18.419L521.691,998.325z"/>
			</g>
		</g>
		<g>
			<g>
				<g>
					<g>
						<path style="fill:#FFFFFF;" d="M621.68,1098.493h-52.327c-10.839,0-19.655-8.616-19.655-19.206v-53.885
							c0-10.589,8.817-19.205,19.655-19.205h52.327c10.836,0,19.653,8.616,19.653,19.205v53.885
							C641.333,1089.878,632.517,1098.493,621.68,1098.493z M569.353,1014.109c-6.476,0-11.744,5.067-11.744,11.294v53.885
							c0,6.228,5.268,11.294,11.744,11.294h52.327c6.474,0,11.742-5.066,11.742-11.294v-53.885c0-6.227-5.268-11.294-11.742-11.294
							H569.353z"/>
					</g>
					<g>
						<path style="fill:#FFFFFF;" d="M595.516,1076.3c-13.206,0-23.953-10.746-23.953-23.955c0-13.209,10.747-23.955,23.953-23.955
							c13.21,0,23.955,10.745,23.955,23.955C619.471,1065.554,608.726,1076.3,595.516,1076.3z M595.516,1036.302
							c-8.848,0-16.042,7.197-16.042,16.044c0,8.846,7.194,16.043,16.042,16.043c8.848,0,16.044-7.197,16.044-16.043
							C611.56,1043.499,604.363,1036.302,595.516,1036.302z"/>
					</g>
					<path style="fill:#FFFFFF;" d="M626.83,1027.186c0,3.095-2.507,5.604-5.604,5.604c-3.094,0-5.601-2.509-5.601-5.604
						c0-3.094,2.507-5.604,5.601-5.604C624.323,1021.583,626.83,1024.092,626.83,1027.186z"/>
				</g>
			</g>
		</g>
	</g>
	<g>
		<g>
			<path style="fill:#4BC74B;stroke:#4C9C36;stroke-width:4;stroke-miterlimit:10;" d="M64.274,537.44
				c0.001-9.942,8.064-18,18.003-17.999l118.637,0.013c9.94,0.001,18,8.061,17.999,18.003l-0.011,105.619
				c-0.001,9.942-8.063,18-18.003,17.999l-118.637-0.013c-9.939-0.001-18-8.061-17.999-18.003L64.274,537.44z"/>
		</g>
		<g>
			<path style="fill:#FFFFFF;" d="M142.79,540.273c-27.035-0.246-49.23,21.548-49.476,48.585
				c-0.081,8.893,2.199,17.486,6.626,25.079l-8.14,25.533l27.125-7.081c7.03,3.826,14.9,5.872,22.972,5.946
				c27.035,0.246,49.231-21.548,49.477-48.583C191.621,562.714,169.825,540.519,142.79,540.273z M141.97,630.33
				c-8.053-0.073-15.541-2.463-21.842-6.53l-0.581,0.154l-15.705,4.098l4.864-15.255c-4.726-6.755-7.468-14.996-7.387-23.866
				c0.206-22.658,18.741-40.86,41.399-40.654c22.657,0.206,40.859,18.743,40.653,41.402
				C183.164,612.334,164.627,630.536,141.97,630.33z"/>
			<path style="fill:#FFFFFF;" d="M134.365,577.151c0,0,1.427,2.227-0.036,4.003c-1.464,1.776-2.668,3.126-2.668,3.126
				s-1.286,0.926-0.026,2.809c1.261,1.887,6.466,10.025,15.544,13.683c0,0,2.798,1.218,4.017-1.495l2.927-3.72
				c0,0,0.691-0.931,2.897,0.026c2.205,0.956,9.157,4.424,9.157,4.424s1.274,0.437,1.002,2.308
				c-0.273,1.873-1.02,9.103-11.075,9.779c0,0-9.71,0.253-20.533-8.278c-6.764-5.33-11.526-11.938-14.142-16.542
				c-0.175-0.306-0.339-0.603-0.494-0.892c-1.359-2.808-2.353-5.882-2.187-8.87c0.003-0.341,0.017-0.698,0.045-1.064
				c0.251-3.267,1.617-7.152,6.555-9.343c0,0,4.007-0.558,4.683,0.043L134.365,577.151z"/>
		</g>
	</g>
	<g>
		<g>
			<path style="fill:#2DBCF5;stroke:#1D95EA;stroke-width:4;stroke-linecap:round;stroke-linejoin:round;stroke-miterlimit:10;" d="
				M155.163,223.049c-0.006-10.178,7.684-18.433,17.169-18.438l113.226-0.065c9.487-0.005,17.185,8.241,17.191,18.418l0.062,108.126
				c0.006,10.178-7.683,18.433-17.17,18.438l-113.226,0.065c-9.485,0.005-17.184-8.24-17.19-18.419L155.163,223.049z"/>
		</g>
		<g>
			<g>
				<g>
					<path style="fill:#FFFFFF;" d="M280.185,238.791c-4.018,2.291-8.468,3.939-13.185,4.803c-3.723-3.997-9.07-6.528-15.021-6.592
						c-11.416-0.123-20.771,8.891-20.892,20.132c-0.017,1.596,0.15,3.148,0.481,4.643c-17.174-1.033-32.324-9.299-42.388-21.722
						c-1.81,2.984-2.874,6.47-2.915,10.203c-0.076,7.06,3.518,13.327,9.023,17.036c-3.388-0.142-6.57-1.09-9.338-2.644
						c-0.001,0.084-0.002,0.17-0.003,0.254c-0.106,9.859,6.931,18.163,16.371,20.138c-1.741,0.448-3.567,0.676-5.456,0.656
						c-1.336-0.014-2.627-0.159-3.887-0.406c2.551,8.111,10.115,14.08,19.164,14.341c-7.138,5.381-16.086,8.541-25.776,8.437
						c-1.673-0.018-3.312-0.132-4.93-0.337c9.091,5.872,19.929,9.357,31.601,9.482c38.03,0.409,59.158-30.379,59.447-57.275
						c0.009-0.881,0.006-1.764-0.024-2.635c4.062-2.824,7.611-6.372,10.427-10.426c-3.724,1.581-7.718,2.629-11.913,3.076
						C275.272,247.483,278.589,243.531,280.185,238.791z"/>
				</g>
			</g>
		</g>
	</g>
	<g>
		<g>
			<path style="fill:#2B68C3;stroke:#0E37B2;stroke-width:4;stroke-miterlimit:10;" d="M524.587,91.58
				c0.021-9.465,7.613-17.122,16.952-17.101l111.477,0.244c9.34,0.02,16.898,7.71,16.877,17.175l-0.22,100.558
				c-0.021,9.466-7.612,17.122-16.952,17.102l-111.477-0.244c-9.339-0.02-16.898-7.71-16.877-17.176L524.587,91.58z"/>
		</g>
		<g>
			<g>
				<g>
					<path style="fill:#FFFFFF;" d="M596.054,204.864h23.955l-0.065-59.762l17.778,0.091l2.307-23.942l-19.039-0.098l0.05-9.579
						c0.024-4.666,3.14-5.738,5.323-5.727c2.189,0.011,13.441,0.068,13.441,0.068l0.104-20.522l-18.503-0.17
						c-20.538-0.104-25.284,15.178-25.334,24.976l-0.055,10.826l-11.88-0.061l-0.123,23.953l11.976,0.062L596.054,204.864z"/>
				</g>
			</g>
		</g>
	</g>
	<g>
		<g>
			<g>
				<g>
					<g>
						<path style="fill:#FF2B24;stroke:#B81924;stroke-width:4;stroke-miterlimit:10;" d="M166.433,857.903
							c0.021-9.465,7.613-17.122,16.952-17.101l111.477,0.244c9.34,0.02,16.898,7.71,16.877,17.175l-0.22,100.558
							c-0.021,9.466-7.612,17.122-16.952,17.102l-111.477-0.244c-9.339-0.02-16.898-7.71-16.877-17.176L166.433,857.903z"/>
					</g>
				</g>
			</g>
		</g>
		<g>
			<g>
				<g>
					<path style="fill:#FFFFFF;" d="M214.27,961.756c0.102,0.74,1.084,0.916,1.528,0.36c0.634-0.797,8.816-10.574,11.6-20.338
						c0.784-2.769,4.511-17.084,4.511-17.084c2.237,4.121,8.757,7.742,15.696,7.742c20.648,0,34.653-18.211,34.653-42.593
						c0-18.436-16.14-35.604-40.667-35.604c-30.51,0-45.899,21.169-45.899,38.824c0,10.687,4.184,20.197,13.149,23.748
						c1.477,0.577,2.793,0.021,3.217-1.557c0.3-1.092,0.996-3.839,1.317-4.994c0.424-1.557,0.261-2.1-0.923-3.459
						c-2.592-2.952-4.244-6.777-4.244-12.188c0-15.71,12.149-29.771,31.624-29.771c17.246,0,26.725,10.2,26.725,23.818
						c0,17.922-8.197,33.047-20.356,33.047c-6.724,0-11.758-5.375-10.149-11.969c1.938-7.876,5.679-16.372,5.679-22.057
						c0-5.086-2.826-9.328-8.662-9.328c-6.872,0-12.392,6.876-12.392,16.084c0,5.869,2.054,9.841,2.054,9.841
						s-7.031,28.814-8.264,33.864C212.016,948.195,214.098,960.516,214.27,961.756z"/>
				</g>
			</g>
		</g>
	</g>
	<g>
		<g>
			
				<path style="fill:none;stroke:#0E69B2;stroke-width:4.9111;stroke-linecap:round;stroke-linejoin:round;stroke-miterlimit:10;stroke-dasharray:9.8222;" d="
				M634.63,393.368c1.305,0.237,2.611,0.487,3.915,0.749c12.235,2.462,24.422,6.052,36.431,10.827
				c7.609,3.026,14.943,6.446,21.989,10.228"/>
			
				<path style="fill:none;stroke:#0E69B2;stroke-width:4.9111;stroke-linecap:round;stroke-linejoin:round;stroke-miterlimit:10;stroke-dasharray:9.8222;" d="
				M523.536,401.541c14.247-5.259,37.197-11.145,61.233-12.179"/>
			
				<path style="fill:none;stroke:#0E69B2;stroke-width:4.9111;stroke-linecap:round;stroke-linejoin:round;stroke-miterlimit:10;stroke-dasharray:9.8222;" d="
				M505.218,789.165c-30.908-15.028-56.653-36.848-76.136-62.909"/>
			
				<path style="fill:none;stroke:#0E69B2;stroke-width:4.9111;stroke-linecap:round;stroke-linejoin:round;stroke-miterlimit:10;stroke-dasharray:9.8222;" d="
				M505.218,789.165"/>
			
				<path style="fill:none;stroke:#0E69B2;stroke-width:4.9111;stroke-linecap:round;stroke-linejoin:round;stroke-miterlimit:10;stroke-dasharray:9.8222;" d="
				M733.942,760c-11.975,10.223-25.019,19.026-38.846,26.284c-15.94,8.368-32.92,14.684-50.502,18.758"/>
		</g>
		<g>
			<path style="fill:none;stroke:#0E69B2;stroke-width:8;stroke-linecap:round;stroke-linejoin:round;stroke-miterlimit:10;" d="
				M426.774,728.081c-15.998-21.464-27.8-45.762-34.808-71.505c-11.668-42.86-10.046-89.724,7.631-134.177
				c12.77-32.115,32.495-59.391,56.756-80.785c19.809-17.468,42.643-31.015,67.184-40.073"/>
			<path style="fill:none;stroke:#0E69B2;stroke-width:8;stroke-linecap:round;stroke-linejoin:round;stroke-miterlimit:10;" d="
				M644.849,807.981c-33.58,7.782-69.331,7.48-104.266-2.196c-7.395-2.048-14.753-4.516-22.046-7.416"/>
			<path style="fill:none;stroke:#0E69B2;stroke-width:8;stroke-linecap:round;stroke-linejoin:round;stroke-miterlimit:10;" d="
				M784.002,499.893c20.211,37.449,29.132,80.753,24.323,124.252c-2.049,18.539-6.592,37.112-13.818,55.284
				c-11.214,28.201-27.79,52.671-48.092,72.703"/>
		</g>
	</g>
</g>
</svg>
