<?xml version="1.0" encoding="utf-8"?>
<!-- Generator: Adobe Illustrator 27.5.0, SVG Export Plug-In . SVG Version: 6.00 Build 0)  -->
<svg version="1.1" id="Capa_1" xmlns="http://www.w3.org/2000/svg" xmlns:xlink="http://www.w3.org/1999/xlink" x="0px" y="0px"
	 viewBox="0 0 403.133 421.501" style="enable-background:new 0 0 403.133 421.501;" xml:space="preserve">
<g>
	<rect style="fill:#1A7290;" width="403.133" height="421.501"/>
	<g style="opacity:0.5;">
		<polygon style="fill:#FFFFFF;" points="142.325,54.79 143.198,54.79 142.755,54.019 		"/>
		<polygon style="fill:#FFFFFF;" points="142.768,58.839 143.198,58.063 142.325,58.063 		"/>
		<polygon style="fill:#FFFFFF;" points="144.323,56.844 145.099,56.4 144.323,55.972 		"/>
		<polygon style="fill:#FFFFFF;" points="141.052,56.844 141.052,55.972 140.279,56.415 		"/>
		<path style="fill:#FFFFFF;" d="M160.34,50.304v-0.035h-8.561v-0.344c0.118-0.043,0.202-0.153,0.202-0.286
			c0-0.132-0.084-0.243-0.202-0.284v-0.33c0.118-0.045,0.202-0.154,0.202-0.285c0-0.17-0.137-0.307-0.305-0.307h-0.123
			c-0.01-1.254,0.037-2.436,0.662-3.448c0.276-0.443,0.664-0.846,1.094-1.147c0.19,0.782,0.58,1.537,1.459,2.204
			c1.27,0.961,2.229,0.675,2.704,0.085c0.638-0.794,0.505-2.341-0.707-3.379c-0.671-0.576-1.496-0.808-2.385-0.668
			c-0.018,0.004-0.039,0.006-0.056,0.01c-0.041-0.573-0.088-1.166-0.249-1.791c-0.499-1.947-2.226-3.23-4.396-3.27
			c-1.907-0.035-4.131,0.976-4.817,3.303c-0.184,0.629-0.255,1.251-0.323,1.854c-0.127,1.117-0.234,2.083-1.042,2.854
			c-0.745,0.713-3.047,1.706-4.577,1.567c-0.493-0.045-0.84-0.202-1.032-0.47c-0.198-0.272-0.581-0.334-0.855-0.136
			c-0.273,0.196-0.335,0.577-0.137,0.853c0.4,0.557,1.064,0.893,1.91,0.971c1.98,0.182,4.599-1.004,5.539-1.901
			c1.123-1.076,1.269-2.36,1.41-3.602c0.064-0.574,0.127-1.117,0.279-1.642c0.508-1.712,2.186-2.454,3.623-2.426
			c1.275,0.023,2.797,0.651,3.231,2.349c0.142,0.547,0.181,1.107,0.217,1.651c0.007,0.084,0.017,0.171,0.02,0.258
			c-0.77,0.409-1.476,1.059-1.951,1.833c-0.797,1.292-0.859,2.704-0.845,4.09h-0.187c-0.167,0-0.306,0.137-0.306,0.307
			c0,0.131,0.085,0.24,0.204,0.285v0.33c-0.119,0.041-0.204,0.152-0.204,0.284c0,0.133,0.085,0.243,0.204,0.286v0.344h-6.225v0.027
			c-0.186-0.016-0.372-0.027-0.563-0.027c-3.464,0-6.271,2.809-6.271,6.271c0,3.465,2.808,6.273,6.271,6.273
			c2.455,0,4.576-1.414,5.605-3.469h5.21c1.03,2.055,3.149,3.469,5.605,3.469c3.462,0,6.272-2.808,6.272-6.273
			C165.95,53.3,163.491,50.636,160.34,50.304z M154.569,43.289c0.533-0.085,1.003,0.046,1.399,0.387
			c0.729,0.624,0.745,1.439,0.55,1.682c-0.143,0.177-0.55,0.061-1.012-0.291c-0.67-0.511-0.93-1.086-1.057-1.756
			C154.491,43.302,154.532,43.296,154.569,43.289z M145.399,57.241c0,0.17-0.138,0.307-0.307,0.307h-1.139v1.137
			c0,0.168-0.139,0.309-0.307,0.309h-1.732c-0.17,0-0.307-0.141-0.307-0.309v-1.137h-1.139c-0.168,0-0.305-0.137-0.305-0.307v-1.732
			c0-0.17,0.137-0.307,0.305-0.307h1.139v-1.138c0-0.167,0.137-0.307,0.307-0.307h1.732c0.168,0,0.307,0.14,0.307,0.307v1.138h1.139
			c0.169,0,0.307,0.137,0.307,0.307V57.241z M149.936,57.487h-1.347c-0.305,0-0.554-0.248-0.554-0.556
			c0-0.308,0.249-0.557,0.554-0.557h1.347c0.309,0,0.558,0.249,0.558,0.557C150.493,57.239,150.244,57.487,149.936,57.487z
			 M153.393,57.487h-1.349c-0.307,0-0.554-0.248-0.554-0.556c0-0.308,0.247-0.557,0.554-0.557h1.349
			c0.307,0,0.556,0.249,0.556,0.557C153.949,57.239,153.7,57.487,153.393,57.487z M157.74,57.396c-0.519,0-0.942-0.421-0.942-0.939
			c0-0.519,0.424-0.94,0.942-0.94c0.517,0,0.938,0.422,0.938,0.94C158.679,56.975,158.257,57.396,157.74,57.396z M160.087,59.743
			c-0.52,0-0.938-0.42-0.938-0.939c0-0.518,0.419-0.938,0.938-0.938c0.519,0,0.941,0.42,0.941,0.938
			C161.028,59.323,160.605,59.743,160.087,59.743z M160.087,55.046c-0.52,0-0.938-0.42-0.938-0.939s0.419-0.94,0.938-0.94
			c0.519,0,0.941,0.421,0.941,0.94S160.605,55.046,160.087,55.046z M162.436,57.396c-0.519,0-0.938-0.421-0.938-0.939
			c0-0.519,0.418-0.94,0.938-0.94c0.521,0,0.94,0.422,0.94,0.94C163.377,56.975,162.958,57.396,162.436,57.396z"/>
	</g>
	<g style="opacity:0.5;">
		<path style="fill:#FFFFFF;" d="M119.144,201.927h-0.78v-4.934c0,0,1.001-8.327-8.358-8.327c-9.234,0-8.356,8.327-8.356,8.327
			v4.934h-0.769c-0.537,0-0.973,0.437-0.973,0.977v17.123c0,0.539,0.436,0.974,0.973,0.974h18.264c0.536,0,0.973-0.435,0.973-0.974
			v-17.123C120.116,202.363,119.68,201.927,119.144,201.927z M111.026,211.694v2.795c0,0.508-0.455,0.921-1.016,0.921
			c-0.559,0-1.016-0.413-1.016-0.921v-2.795c-0.709-0.365-1.195-1.107-1.195-1.962c0-1.221,0.991-2.211,2.211-2.211
			c1.221,0,2.211,0.99,2.211,2.211C112.222,210.587,111.737,211.329,111.026,211.694z M115.93,197.235v4.691h-11.845v-4.691
			c0,0-0.617-5.899,5.924-5.899C116.639,191.336,115.93,197.235,115.93,197.235z"/>
	</g>
	<g style="opacity:0.5;">
		<path style="fill:#FFFFFF;" d="M285.53,224.665v-1.188l-4.373-6.916c-0.434-0.685-1.339-0.889-2.025-0.456l-11.27,7.126
			c-0.684,0.434-0.889,1.341-0.455,2.025l4.805,7.599c0.266,0.418,0.681,0.633,1.133,0.655v0.011h1.315v-6.199
			c0-1.466,1.091-2.657,2.444-2.657H285.53z M280.718,217.525l3.762,5.952h-5.101L280.718,217.525z M272.663,231.909l-4.207-6.655
			c-0.025-0.034-0.041-0.071-0.061-0.109l4.954,1.116c-0.002,0.033-0.004,0.063-0.004,0.094v6.075
			C273.072,232.342,272.829,232.169,272.663,231.909z M273.507,225.356l-5.188-1.169c0.09-0.285,0.277-0.544,0.555-0.718
			l10.039-6.352c0.309-0.193,0.668-0.245,0.993-0.172l-1.47,6.531h-2.471C274.838,223.477,273.88,224.26,273.507,225.356z"/>
		<path style="fill:#FFFFFF;" d="M280.931,231.09c-0.05-0.032-0.133-0.08-0.258-0.142c-0.125-0.061-0.276-0.131-0.443-0.209
			c-0.189-0.078-0.411-0.174-0.668-0.284c-0.258-0.107-0.543-0.224-0.855-0.35c-0.449-0.171-0.814-0.374-1.089-0.606
			c-0.27-0.235-0.409-0.492-0.409-0.772c0-0.358,0.15-0.663,0.448-0.911c0.122-0.126,0.294-0.227,0.513-0.305
			c0.219-0.079,0.413-0.118,0.584-0.118c0.577,0,1.014,0.173,1.313,0.516c0.232,0.279,0.473,0.334,0.724,0.163
			c0.189-0.109,0.36-0.22,0.515-0.327c0.156-0.095,0.25-0.207,0.28-0.341c0.03-0.132-0.017-0.27-0.14-0.408
			c-0.141-0.188-0.318-0.365-0.539-0.539c-0.608-0.467-1.318-0.702-2.127-0.702c-0.906,0-1.703,0.298-2.387,0.89
			c-0.641,0.609-0.959,1.303-0.959,2.083c0,0.966,0.381,1.708,1.147,2.222c0.092,0.079,0.325,0.195,0.699,0.352
			c0.378,0.171,0.891,0.383,1.545,0.631c0.451,0.174,0.815,0.374,1.087,0.608c0.275,0.233,0.411,0.491,0.411,0.772
			c0,0.358-0.147,0.663-0.445,0.912c-0.142,0.126-0.319,0.214-0.538,0.269c-0.216,0.055-0.413,0.083-0.585,0.083
			c-0.576,0-1.021-0.172-1.334-0.515c-0.061-0.078-0.15-0.152-0.268-0.224c-0.117-0.07-0.27-0.041-0.455,0.082
			c-0.08,0.049-0.162,0.099-0.248,0.153c-0.082,0.054-0.166,0.105-0.243,0.151c-0.124,0.08-0.21,0.156-0.259,0.234
			c-0.046,0.079-0.066,0.15-0.059,0.224c0.007,0.069,0.027,0.131,0.059,0.186c0.032,0.055,0.063,0.099,0.094,0.128
			c0.172,0.22,0.367,0.406,0.586,0.561c0.621,0.454,1.33,0.679,2.127,0.679c0.906,0,1.691-0.286,2.365-0.864
			c0.652-0.561,0.98-1.248,0.98-2.059C282.099,232.346,281.708,231.604,280.931,231.09z"/>
		<path style="fill:#FFFFFF;" d="M292.933,225.966c-1.202,0-2.193,0.436-2.972,1.311c-0.782-0.874-1.772-1.311-2.972-1.311
			c-1.124,0-2.06,0.414-2.806,1.239c-0.767,0.812-1.148,1.778-1.148,2.9v5.78c0,0.094,0.015,0.171,0.047,0.234
			c0.03,0.061,0.073,0.114,0.129,0.162c0.053,0.047,0.146,0.071,0.268,0.071h1.079c0.217,0,0.355-0.078,0.421-0.233
			c0.03-0.064,0.045-0.141,0.045-0.234v-5.78c0-0.575,0.189-1.075,0.561-1.497c0.375-0.436,0.842-0.654,1.404-0.654
			c0.625,0,1.108,0.195,1.451,0.584c0.357,0.407,0.535,0.929,0.535,1.567v5.78c-0.014,0.094-0.006,0.171,0.025,0.234
			c0.03,0.061,0.079,0.114,0.141,0.162c0.06,0.047,0.163,0.071,0.303,0.071h1.055c0.216,0,0.357-0.078,0.42-0.233
			c0.031-0.064,0.039-0.141,0.025-0.234v-5.78c0-0.606,0.176-1.13,0.537-1.567c0.344-0.389,0.826-0.584,1.451-0.584
			c0.576,0,1.051,0.219,1.424,0.654c0.377,0.422,0.563,0.922,0.563,1.497v5.78c0,0.094,0.018,0.171,0.047,0.234
			c0.033,0.061,0.074,0.114,0.129,0.162c0.055,0.047,0.145,0.071,0.27,0.071h1.075c0.218,0,0.359-0.078,0.423-0.233
			c0.029-0.064,0.047-0.141,0.047-0.234v-5.78c0-1.107-0.393-2.073-1.169-2.9C294.99,226.38,294.054,225.966,292.933,225.966z"/>
		<path style="fill:#FFFFFF;" d="M303.646,231.09c-0.047-0.032-0.133-0.08-0.258-0.142c-0.125-0.061-0.27-0.131-0.441-0.209
			c-0.189-0.078-0.413-0.174-0.668-0.284c-0.26-0.107-0.544-0.224-0.857-0.35c-0.449-0.171-0.813-0.374-1.086-0.606
			c-0.272-0.235-0.409-0.492-0.409-0.772c0-0.358,0.147-0.663,0.445-0.911c0.125-0.126,0.296-0.227,0.515-0.305
			c0.217-0.079,0.413-0.118,0.585-0.118c0.574,0,1.012,0.173,1.31,0.516c0.233,0.279,0.475,0.334,0.727,0.163
			c0.188-0.109,0.357-0.22,0.514-0.327c0.156-0.095,0.25-0.207,0.281-0.341c0.029-0.132-0.017-0.27-0.142-0.408
			c-0.14-0.188-0.319-0.365-0.54-0.539c-0.606-0.467-1.315-0.702-2.127-0.702c-0.905,0-1.7,0.298-2.387,0.89
			c-0.638,0.609-0.959,1.303-0.959,2.083c0,0.966,0.383,1.708,1.147,2.222c0.094,0.079,0.327,0.195,0.703,0.352
			c0.374,0.171,0.889,0.383,1.545,0.631c0.449,0.174,0.811,0.374,1.088,0.608c0.271,0.233,0.408,0.491,0.408,0.772
			c0,0.358-0.148,0.663-0.445,0.912c-0.141,0.126-0.32,0.214-0.539,0.269c-0.217,0.055-0.411,0.083-0.583,0.083
			c-0.576,0-1.022-0.172-1.335-0.515c-0.063-0.078-0.152-0.152-0.268-0.224c-0.118-0.07-0.27-0.041-0.457,0.082
			c-0.078,0.049-0.162,0.099-0.244,0.153c-0.086,0.054-0.167,0.105-0.246,0.151c-0.125,0.08-0.209,0.156-0.256,0.234
			c-0.051,0.079-0.068,0.15-0.062,0.224c0.011,0.069,0.028,0.131,0.062,0.186c0.028,0.055,0.059,0.099,0.092,0.128
			c0.17,0.22,0.365,0.406,0.584,0.561c0.623,0.454,1.333,0.679,2.13,0.679c0.903,0,1.69-0.286,2.362-0.864
			c0.652-0.561,0.982-1.248,0.982-2.059C304.815,232.346,304.426,231.604,303.646,231.09z"/>
	</g>
	<g style="opacity:0.5;">
		<path style="fill:#FFFFFF;" d="M354.022,137.756c0,2.514-2.035,4.549-4.549,4.549c-2.512,0-4.549-2.035-4.549-4.549
			c0-2.51,2.037-4.546,4.549-4.546C351.987,133.21,354.022,135.246,354.022,137.756z"/>
		<path style="fill:#FFFFFF;" d="M350.22,126.034c-3.149,0-2.51,3.685,0,3.646c3.942-0.061,7.063,3.195,7.139,7.136
			c0.039,2.077,3.643,2.415,3.643,0C361.002,130.86,356.175,126.034,350.22,126.034z"/>
		<path style="fill:#FFFFFF;" d="M348.462,117.878c-3.145,0.115-2.565,3.671-0.055,3.588c1.912-0.063,7.792-0.284,12.525,4.168
			c4.324,4.07,4.132,10.131,4.232,12.365c0.09,2.078,3.547,2.235,3.584-0.181c0.054-3.586-0.701-10.47-4.961-14.679
			C358.343,117.767,351.579,117.764,348.462,117.878z"/>
	</g>
	<g style="opacity:0.5;">
		<path style="fill:#FFFFFF;" d="M174.811,109.274c-1.018,0-21.531,0-21.531,0s1.477,8.396,1.747,9.683
			c0.273,1.29,0.696,1.667,1.817,1.718c1.119,0.051,12.316,0,13.439,0c1.12,0,1.729-0.56,2.188-1.477
			c0.458-0.918,2.896-6.83,3.46-8.296C176.358,109.79,175.827,109.274,174.811,109.274z M174.274,111.831
			c-0.48,1.132-2.559,5.701-2.951,6.41c-0.393,0.707-0.911,1.139-1.865,1.139c-0.957,0-10.503,0.039-11.459,0
			c-0.955-0.038-1.318-0.332-1.549-1.327c-0.229-0.992-1.488-7.479-1.488-7.479s17.49,0,18.357,0
			C174.186,110.573,174.64,110.972,174.274,111.831z"/>
		<path style="fill:#FFFFFF;" d="M171.085,122.188c-0.802-0.012-0.916,0.471-0.916,0.471c-0.311,0.575-0.724,0.926-1.476,0.926
			c-0.763,0-8.366,0.033-9.127,0c-0.761-0.033-1.05-0.273-1.232-1.098c-0.075-0.333-0.284-1.411-0.507-2.576h-1.521
			c0.282,1.58,0.554,3.082,0.649,3.531c0.223,1.059,0.574,1.369,1.492,1.41c0.92,0.043,10.125,0,11.044,0
			c0.92,0,1.423-0.46,1.798-1.213c0.082-0.162,0.367-0.814,0.367-0.814S171.976,122.292,171.085,122.188z"/>
		<path style="fill:#FFFFFF;" d="M161.561,127.771c0,1.273-1.035,2.306-2.308,2.306c-1.273,0-2.308-1.032-2.308-2.306
			c0-1.274,1.034-2.308,2.308-2.308C160.526,125.464,161.561,126.497,161.561,127.771z"/>
		<path style="fill:#FFFFFF;" d="M172.09,127.771c0,1.273-1.032,2.306-2.308,2.306c-1.273,0-2.305-1.032-2.305-2.306
			c0-1.274,1.031-2.308,2.305-2.308C171.058,125.464,172.09,126.497,172.09,127.771z"/>
		<path style="fill:#FFFFFF;" d="M154.854,109.589l-1.446,0.289l-1.006-5.041c0,0,1.406-0.499,1.621,0.585
			C154.239,106.507,154.854,109.589,154.854,109.589z"/>
		<path style="fill:#FFFFFF;" d="M153.886,105.83c0.139,0.69-0.307,1.358-0.996,1.498c-0.688,0.138-1.361-0.31-1.5-0.999
			c-0.137-0.688,0.313-1.358,1-1.496C153.077,104.693,153.75,105.14,153.886,105.83z"/>
		<rect x="163.361" y="109.985" style="fill:#FFFFFF;" width="1.423" height="9.977"/>
		
			<rect x="162.597" y="114.414" transform="matrix(0.1116 -0.9938 0.9938 0.1116 34.4782 268.8189)" style="fill:#FFFFFF;" width="9.976" height="1.426"/>
		
			<rect x="165.802" y="114.364" transform="matrix(0.2166 -0.9762 0.9762 0.2166 21.4467 256.8796)" style="fill:#FFFFFF;" width="9.977" height="1.424"/>
		
			<rect x="160.105" y="110.036" transform="matrix(0.9938 -0.111 0.111 0.9938 -11.7695 18.5537)" style="fill:#FFFFFF;" width="1.425" height="9.977"/>
		
			<rect x="156.898" y="109.985" transform="matrix(0.976 -0.2176 0.2176 0.976 -21.2379 37.0426)" style="fill:#FFFFFF;" width="1.426" height="9.976"/>
	</g>
	<g style="opacity:0.5;">
		<path style="fill:#FFFFFF;" d="M28.897,84.439c-3.229,2.464-3.849,7.078-1.385,10.305c2.465,3.229,7.08,3.849,10.307,1.385
			c3.23-2.464,3.848-7.079,1.384-10.308C36.738,82.594,32.126,81.974,28.897,84.439z M36.657,94.608
			c-2.388,1.822-5.799,1.363-7.621-1.026c-1.823-2.387-1.365-5.799,1.024-7.621c2.387-1.823,5.801-1.364,7.623,1.022
			C39.505,89.374,39.048,92.784,36.657,94.608z"/>
		
			<rect x="36.929" y="94.968" transform="matrix(0.7953 -0.6062 0.6062 0.7953 -50.8211 43.0311)" style="fill:#FFFFFF;" width="2.758" height="3.601"/>
		<path style="fill:#FFFFFF;" d="M47.606,105.03c0,0,1.655,1.424-0.597,3.14c-2.25,1.719-3.187-0.253-3.187-0.253l-7.128-9.34
			l3.785-2.887L47.606,105.03z"/>
	</g>
	<path style="opacity:0.5;fill:#FFFFFF;" d="M283.035,34.24c-8.647,0-15.679,7.035-15.679,15.681
		c0,8.645,7.031,15.679,15.679,15.679c8.648,0,15.679-7.034,15.679-15.679C298.714,41.275,291.684,34.24,283.035,34.24z
		 M297.764,50.232h-5.095c0-0.104,0.004-0.207,0.004-0.312c0-2.302-0.31-4.49-0.86-6.462c3.617,1.469,5.968,3.816,5.968,6.462
		C297.78,50.025,297.77,50.13,297.764,50.232z M291.735,49.921c0,0.104-0.002,0.207-0.005,0.312h-8.407v-8.356
		c2.71,0.029,5.244,0.456,7.408,1.185C291.371,45.11,291.735,47.443,291.735,49.921z M283.323,40.939v-5.748
		c2.953,0.161,5.536,2.831,7.036,6.785C288.253,41.338,285.859,40.965,283.323,40.939z M282.386,40.944
		c-2.402,0.055-4.668,0.425-6.676,1.032c1.441-3.791,3.875-6.399,6.676-6.755V40.944z M282.386,41.884v8.349h-8.045
		c-0.002-0.104-0.004-0.207-0.004-0.312c0-2.478,0.364-4.811,1.002-6.86C277.409,42.366,279.811,41.942,282.386,41.884z
		 M273.403,50.232h-5.093c-0.011-0.102-0.017-0.207-0.017-0.312c0-2.646,2.349-4.993,5.961-6.462
		c-0.549,1.972-0.858,4.16-0.858,6.462C273.397,50.025,273.403,50.128,273.403,50.232z M273.435,51.171
		c0.088,1.846,0.373,3.6,0.82,5.211c-3.034-1.231-5.172-3.085-5.783-5.211H273.435z M274.37,51.171h8.016v6.789
		c-2.574-0.062-4.977-0.484-7.047-1.178C274.811,55.08,274.47,53.183,274.37,51.171z M282.386,58.896v5.72
		c-2.801-0.352-5.234-2.959-6.676-6.754C277.718,58.473,279.983,58.839,282.386,58.896z M283.323,58.903
		c2.536-0.026,4.93-0.4,7.036-1.041c-1.5,3.959-4.083,6.625-7.036,6.787V58.903z M283.323,57.964v-6.793h8.377
		c-0.098,2.012-0.439,3.909-0.969,5.611C288.567,57.508,286.033,57.935,283.323,57.964z M292.638,51.171h4.961
		c-0.609,2.126-2.75,3.98-5.786,5.211C292.265,54.771,292.55,53.017,292.638,51.171z M297.3,46.196
		c-1.26-1.577-3.295-2.914-5.828-3.844c-0.969-2.848-2.463-5.155-4.273-6.571C292.132,37.237,295.995,41.202,297.3,46.196z
		 M278.874,35.781c-1.809,1.416-3.307,3.724-4.275,6.571c-2.529,0.93-4.567,2.267-5.826,3.844
		C270.074,41.202,273.94,37.237,278.874,35.781z M268.772,53.644c1.259,1.581,3.297,2.914,5.826,3.845
		c0.969,2.847,2.467,5.155,4.275,6.57C273.94,62.604,270.074,58.638,268.772,53.644z M287.198,64.059
		c1.811-1.415,3.305-3.724,4.273-6.57c2.533-0.931,4.568-2.264,5.828-3.845C295.995,58.638,292.132,62.604,287.198,64.059z"/>
	<polygon style="fill:#FFFFFF;" points="190.197,194.608 183.917,184.429 196.474,184.429 	"/>
	<polygon style="fill:#FFFFFF;" points="118.206,133.759 124.481,143.936 111.929,143.936 	"/>
	<g>
		<g>
			
				<line style="fill:none;stroke:#FFFFFF;stroke-width:1.0463;stroke-linecap:round;stroke-linejoin:round;" x1="118.206" y1="143.936" x2="118.206" y2="144.983"/>
			
				<path style="fill:none;stroke:#FFFFFF;stroke-width:1.0463;stroke-linecap:round;stroke-linejoin:round;stroke-dasharray:2.1064,2.1064;" d="
				M118.206,147.089v12.656c0,4.893,4.004,8.897,8.898,8.897h53.934c4.895,0,8.898,4.004,8.898,8.897v9.748"/>
			
				<line style="fill:none;stroke:#FFFFFF;stroke-width:1.0463;stroke-linecap:round;stroke-linejoin:round;" x1="189.936" y1="188.341" x2="189.936" y2="189.388"/>
		</g>
	</g>
	<polygon style="fill:#FFFFFF;" points="226.735,180.318 236.915,186.597 236.915,174.04 	"/>
	<polygon style="fill:#FFFFFF;" points="294.104,150.592 287.824,160.771 300.38,160.771 	"/>
	<g>
		<g>
			
				<line style="fill:none;stroke:#FFFFFF;stroke-width:1.0463;stroke-linecap:round;stroke-linejoin:round;" x1="293.136" y1="160.771" x2="293.136" y2="161.817"/>
			
				<path style="fill:none;stroke:#FFFFFF;stroke-width:1.0463;stroke-linecap:round;stroke-linejoin:round;stroke-dasharray:2.0566,2.0566;" d="
				M293.136,163.874v7.547c0,4.894-4.004,8.897-8.898,8.897h-47.385"/>
			
				<line style="fill:none;stroke:#FFFFFF;stroke-width:1.0463;stroke-linecap:round;stroke-linejoin:round;" x1="235.823" y1="180.318" x2="234.777" y2="180.318"/>
		</g>
	</g>
	<polygon style="fill:#FFFFFF;" points="107.837,248.3 97.657,254.578 97.657,242.022 	"/>
	<polygon style="fill:#FFFFFF;" points="55.677,198.817 61.957,208.997 49.399,208.997 	"/>
	<g>
		<g>
			
				<line style="fill:none;stroke:#FFFFFF;stroke-width:1.0463;stroke-linecap:round;stroke-linejoin:round;" x1="55.677" y1="208.997" x2="55.677" y2="210.044"/>
			
				<path style="fill:none;stroke:#FFFFFF;stroke-width:1.0463;stroke-linecap:round;stroke-linejoin:round;stroke-dasharray:2.0917,2.0917;" d="
				M55.677,212.136v27.266c0,4.895,4.004,8.898,8.899,8.898h33.025"/>
			
				<line style="fill:none;stroke:#FFFFFF;stroke-width:1.0463;stroke-linecap:round;stroke-linejoin:round;" x1="98.646" y1="248.3" x2="99.692" y2="248.3"/>
		</g>
	</g>
	<polygon style="fill:#FFFFFF;" points="290.325,270.508 300.505,276.786 300.505,264.23 	"/>
	<polygon style="fill:#FFFFFF;" points="338.647,221.026 332.37,231.204 344.926,231.204 	"/>
	<g>
		<g>
			
				<line style="fill:none;stroke:#FFFFFF;stroke-width:1.0463;stroke-linecap:round;stroke-linejoin:round;" x1="338.647" y1="231.204" x2="338.647" y2="232.251"/>
			
				<path style="fill:none;stroke:#FFFFFF;stroke-width:1.0463;stroke-linecap:round;stroke-linejoin:round;stroke-dasharray:2.0391,2.0391;" d="
				M338.647,234.29v27.32c0,4.894-4.004,8.898-8.898,8.898h-31.103"/>
			
				<line style="fill:none;stroke:#FFFFFF;stroke-width:1.0463;stroke-linecap:round;stroke-linejoin:round;" x1="297.626" y1="270.508" x2="296.58" y2="270.508"/>
		</g>
	</g>
	<polygon style="fill:#FFFFFF;" points="223.307,216.213 217.026,206.034 229.585,206.034 	"/>
	<polygon style="fill:#FFFFFF;" points="223.307,97.696 229.585,107.874 217.026,107.874 	"/>
	
		<line style="fill:none;stroke:#FFFFFF;stroke-width:1.0463;stroke-linecap:round;stroke-linejoin:round;stroke-miterlimit:10;stroke-dasharray:2.0927;" x1="223.307" y1="109.22" x2="223.307" y2="208.776"/>
	<g>
		<g>
			<defs>
				<path id="SVGID_1_" d="M133.149,91.283c0,19.471-15.784,35.254-35.255,35.254c-19.472,0-35.256-15.783-35.256-35.254
					c0-19.473,15.784-35.256,35.256-35.256C117.365,56.027,133.149,71.811,133.149,91.283z"/>
			</defs>
			<use xlink:href="#SVGID_1_"  style="overflow:visible;fill:#8CD0E5;"/>
			<clipPath id="SVGID_00000160158908109373941840000000743931353004316822_">
				<use xlink:href="#SVGID_1_"  style="overflow:visible;"/>
			</clipPath>
			<g style="clip-path:url(#SVGID_00000160158908109373941840000000743931353004316822_);">
				<path style="fill:#FAC9AA;" d="M101.691,113.726h-3.797h-3.798c0,0-19.593,2.67-20.604,11.102v1.71h24.401h24.403v-1.71
					C121.287,116.396,101.691,113.726,101.691,113.726z"/>
				<g>
					<path style="fill:#FAC9AA;" d="M112.288,93.617c-0.327,1.742,0.296,3.319,1.389,3.526c1.098,0.205,2.25-1.037,2.58-2.78
						c0.326-1.741-0.297-3.321-1.395-3.524C113.769,90.632,112.616,91.878,112.288,93.617z"/>
					<path style="fill:#DADADA;" d="M114.262,92.534c0,0,0.073,0.035,0.202,0.082c0.063,0.021,0.152,0.038,0.21,0.102
						c0.06,0.061,0.128,0.085,0.173,0.175c0.061,0.066,0.101,0.149,0.133,0.25c0.047,0.08,0.031,0.214,0.063,0.315
						c-0.002,0.24,0,0.499-0.072,0.765c-0.046,0.264-0.14,0.522-0.236,0.755c-0.099,0.232-0.223,0.42-0.348,0.562
						c-0.068,0.051-0.132,0.115-0.198,0.146c-0.069,0.011-0.146,0.062-0.2,0.04c-0.119-0.016-0.209-0.021-0.209-0.021
						s0.047,0.053,0.171,0.146c0.058,0.057,0.155,0.054,0.269,0.081c0.11,0.018,0.241-0.018,0.374-0.065
						c0.247-0.116,0.487-0.332,0.658-0.599c0.178-0.265,0.302-0.579,0.376-0.906c0.031-0.165,0.051-0.333,0.051-0.504
						c0.019-0.166-0.035-0.341-0.053-0.5c-0.061-0.163-0.094-0.319-0.207-0.452c-0.047-0.064-0.09-0.13-0.143-0.184
						c-0.063-0.045-0.125-0.084-0.184-0.127c-0.104-0.092-0.26-0.096-0.361-0.118c-0.109-0.027-0.185,0.002-0.254,0.011
						C114.341,92.51,114.262,92.534,114.262,92.534z"/>
				</g>
				<g>
					<path style="fill:#FAC9AA;" d="M84.033,93.617c0.325,1.742-0.294,3.319-1.393,3.526c-1.095,0.205-2.246-1.037-2.573-2.78
						c-0.326-1.741,0.297-3.321,1.391-3.524C82.554,90.632,83.708,91.878,84.033,93.617z"/>
					<path style="fill:#DADADA;" d="M82.06,92.534c0,0-0.074,0.035-0.201,0.082c-0.061,0.021-0.154,0.038-0.209,0.102
						c-0.059,0.061-0.131,0.085-0.178,0.175c-0.057,0.066-0.102,0.149-0.128,0.25c-0.049,0.08-0.03,0.214-0.067,0.315
						c0.004,0.24,0.004,0.499,0.078,0.765c0.046,0.264,0.137,0.522,0.232,0.755c0.102,0.232,0.225,0.42,0.35,0.562
						c0.064,0.051,0.129,0.115,0.197,0.146c0.068,0.011,0.146,0.062,0.203,0.04c0.117-0.016,0.207-0.021,0.207-0.021
						s-0.047,0.053-0.172,0.146c-0.059,0.057-0.153,0.054-0.27,0.081c-0.109,0.018-0.244-0.018-0.373-0.065
						c-0.25-0.116-0.486-0.332-0.655-0.599c-0.183-0.265-0.306-0.579-0.377-0.906c-0.036-0.165-0.054-0.333-0.054-0.504
						c-0.018-0.166,0.034-0.341,0.055-0.5c0.059-0.163,0.093-0.319,0.207-0.452c0.049-0.064,0.09-0.13,0.143-0.184
						c0.063-0.045,0.125-0.084,0.184-0.127c0.105-0.092,0.258-0.096,0.359-0.118c0.111-0.027,0.186,0.002,0.255,0.011
						C81.981,92.51,82.06,92.534,82.06,92.534z"/>
				</g>
				<rect x="94.097" y="108.717" style="fill:#FAC9AA;" width="7.595" height="6.426"/>
				<path style="fill:#DADADA;" d="M101.691,109.38v-0.663h-7.595v4.938C95.358,110.937,98.629,109.486,101.691,109.38z"/>
				<path style="fill:#FAC9AA;" d="M114.213,88.748c0,11.372-6.898,20.592-16.313,20.592c-9.414,0-16.13-9.556-16.13-20.928
					C81.6,73.307,88.486,68.159,97.9,68.159C107.314,68.159,115.04,72.787,114.213,88.748z"/>
				<path style="fill:#0D3953;" d="M105.566,114.442c-1.462,2.743-4.359,4.641-7.634,4.641c-3.283,0-6.183-1.904-7.643-4.654
					c-5.748,1.255-16.071,4.338-16.797,10.398v1.71h48.805v-1.71C121.573,118.786,111.326,115.707,105.566,114.442z"/>
				<g>
					<path style="fill:#07283C;" d="M105.566,114.442c-1.462,2.743-4.359,4.641-7.634,4.641c-3.283,0-6.183-1.904-7.643-4.654
						c-0.85,0.185-1.804,0.414-2.811,0.684c1.875,3.858,5.852,6.572,10.367,6.572c4.523,0,8.504-2.727,10.373-6.596
						C107.273,114.836,106.374,114.623,105.566,114.442z"/>
				</g>
				<path style="fill:none;stroke:#432918;stroke-width:0.7783;stroke-linecap:round;stroke-miterlimit:10;" d="M86.536,85.466
					c0,0,2.075-3.798,5.988-1.021"/>
				<path style="fill:none;stroke:#432918;stroke-width:0.7783;stroke-linecap:round;stroke-miterlimit:10;" d="M109.252,85.466
					c0,0-2.074-3.798-5.989-1.021"/>
				<g>
					<path style="fill:#D3AC91;" d="M99.874,95.82c0,0,0.088,0.067,0.213,0.214c0.125,0.146,0.297,0.369,0.412,0.701
						c0.065,0.162,0.109,0.36,0.107,0.582c0.003,0.223-0.057,0.48-0.199,0.709c-0.08,0.104-0.164,0.218-0.261,0.312
						c-0.103,0.077-0.213,0.152-0.328,0.22c-0.227,0.105-0.468,0.188-0.698,0.232c-0.229,0.019-0.467,0.063-0.684,0.051
						c-0.219-0.002-0.433-0.031-0.638-0.047c-0.401-0.072-0.771-0.156-1.075-0.262c-0.605-0.223-0.98-0.445-0.98-0.445
						s0.441-0.065,1.062-0.052c0.312-0.008,0.668-0.021,1.042-0.011c0.184-0.01,0.373-0.032,0.564-0.029
						c0.192,0.002,0.366-0.049,0.551-0.066c0.176-0.025,0.338-0.076,0.482-0.13c0.061-0.038,0.124-0.068,0.193-0.096l0.143-0.122
						c0.072-0.095,0.145-0.197,0.178-0.333c0.03-0.131,0.056-0.276,0.05-0.418c0-0.282-0.043-0.54-0.076-0.72
						C99.896,95.926,99.874,95.82,99.874,95.82z"/>
				</g>
				<g>
					<path style="fill:#FFFFFF;" d="M93.431,101.929c0.949,1.747,2.646,2.916,4.588,2.916s3.643-1.169,4.594-2.916H93.431z"/>
					<g>
						<path style="fill:#E2B79B;" d="M93.431,101.929l0.428,0.574l0.472,0.52l0.528,0.457l0.574,0.385l0.609,0.313l0.644,0.222
							l0.664,0.122l0.648,0.023l0.71-0.07l0.621-0.159l0.614-0.255l0.575-0.332l0.528-0.406l0.474-0.473l0.418-0.523l0.359-0.567
							l0.314,0.528c-1.53-0.008-3.061-0.03-4.591-0.099C96.491,102.136,94.961,102.061,93.431,101.929z M93.431,101.929
							c1.53-0.132,3.061-0.207,4.591-0.259c1.53-0.068,3.061-0.091,4.591-0.099h0.017c0.192-0.002,0.349,0.153,0.349,0.345
							c0.001,0.067-0.019,0.131-0.051,0.184l-0.396,0.644c-0.15,0.201-0.311,0.396-0.472,0.592
							c-0.175,0.182-0.362,0.352-0.544,0.527c-0.196,0.159-0.405,0.304-0.608,0.455c-0.218,0.13-0.443,0.249-0.666,0.369
							l-0.716,0.264l-0.77,0.159l-0.712,0.035l-0.775-0.083l-0.727-0.192l-0.687-0.298l-0.632-0.389
							c-0.193-0.154-0.382-0.313-0.563-0.477l-0.488-0.544l-0.416-0.596L93.431,101.929z"/>
					</g>
				</g>
				<g>
					<path style="fill:#432918;" d="M91.604,89.229c0,1.027-0.719,1.863-1.605,1.863c-0.887,0-1.606-0.836-1.606-1.863
						c0-1.029,0.72-1.863,1.606-1.863C90.886,87.366,91.604,88.2,91.604,89.229z"/>
					<g>
						<path style="fill:#FFFFFF;" d="M89.509,88.481c0,0.412-0.334,0.748-0.75,0.748c-0.411,0-0.748-0.336-0.748-0.748
							c0-0.414,0.337-0.75,0.748-0.75C89.175,87.731,89.509,88.067,89.509,88.481z"/>
						<path style="fill:#FFFFFF;" d="M89.472,89.566c0,0.196-0.16,0.356-0.358,0.356c-0.195,0-0.355-0.16-0.355-0.356
							c0-0.195,0.16-0.355,0.355-0.355C89.312,89.211,89.472,89.371,89.472,89.566z"/>
					</g>
				</g>
				<path style="fill:#5F3A2C;" d="M98.025,63.601c-1.813,0.081,11.227-0.58,14.177,3.436c6.286,6.859,2.359,23.803,2.359,23.803
					l-0.754,0.254l-0.409,2.896h-0.78c0,0,1.528-9.541-1.449-12.339c0,0,1.049-8.267-2.445-8.85c0,0-7.517-0.835-10.861-0.436
					L98.025,63.601z"/>
				<g>
					<path style="fill:#432918;" d="M104.249,89.229c0,1.027,0.722,1.863,1.607,1.863c0.888,0,1.609-0.836,1.609-1.863
						c0-1.029-0.722-1.863-1.609-1.863C104.971,87.366,104.249,88.2,104.249,89.229z"/>
					<g>
						<path style="fill:#FFFFFF;" d="M106.347,88.481c0,0.412,0.334,0.748,0.748,0.748c0.413,0,0.749-0.336,0.749-0.748
							c0-0.414-0.336-0.75-0.749-0.75C106.681,87.731,106.347,88.067,106.347,88.481z"/>
						<path style="fill:#FFFFFF;" d="M106.384,89.566c0,0.196,0.16,0.356,0.356,0.356c0.196,0,0.355-0.16,0.355-0.356
							c0-0.195-0.158-0.355-0.355-0.355C106.544,89.211,106.384,89.371,106.384,89.566z"/>
					</g>
				</g>
				<path style="fill:#5F3A2C;" d="M98.194,63.607c-3.606-0.169-9.974,0.451-14.251,3.78c-6.285,6.857-2.589,23.451-2.589,23.451
					l0.755,0.254l0.407,2.896h0.78c0,0-1.528-9.541,1.448-12.339c0,0-0.624-7.497,2.664-8.455c0,0,6.812-1.486,10.453-0.83
					c0,0-0.082,0.015,0,0L98.194,63.607z"/>
			</g>
		</g>
	</g>
	<g>
		<g>
			<defs>
				<path id="SVGID_00000006678356041663703540000014288042401166702260_" d="M86.134,157.456c0,16.604-13.461,30.066-30.065,30.066
					c-16.603,0-30.063-13.462-30.063-30.066c0-16.602,13.46-30.063,30.063-30.063C72.673,127.393,86.134,140.854,86.134,157.456z"/>
			</defs>
			<use xlink:href="#SVGID_00000006678356041663703540000014288042401166702260_"  style="overflow:visible;fill:#A9C811;"/>
			<clipPath id="SVGID_00000041264914129026853250000001720925425002518672_">
				<use xlink:href="#SVGID_00000006678356041663703540000014288042401166702260_"  style="overflow:visible;"/>
			</clipPath>
			<g style="clip-path:url(#SVGID_00000041264914129026853250000001720925425002518672_);">
				<path style="fill:#92693D;" d="M59.308,176.595h-3.239H52.83c0,0-16.71,2.275-17.572,9.469v1.458h20.81h20.81v-1.458
					C76.015,178.87,59.308,176.595,59.308,176.595z"/>
				<g>
					<path style="fill:#92693D;" d="M68.345,159.446c-0.281,1.486,0.249,2.833,1.186,3.007c0.932,0.178,1.916-0.884,2.195-2.37
						c0.279-1.485-0.252-2.831-1.187-3.006C69.604,156.9,68.622,157.963,68.345,159.446z"/>
					<path style="fill:#DADADA;" d="M70.025,158.523c0,0,0.064,0.03,0.173,0.069c0.051,0.02,0.131,0.033,0.179,0.089
						c0.05,0.051,0.108,0.074,0.147,0.148c0.053,0.057,0.09,0.128,0.111,0.212c0.043,0.072,0.025,0.184,0.057,0.269
						c-0.002,0.205-0.002,0.428-0.065,0.652c-0.036,0.226-0.116,0.446-0.2,0.642c-0.084,0.2-0.188,0.36-0.295,0.482
						c-0.057,0.044-0.113,0.098-0.17,0.123c-0.057,0.011-0.121,0.053-0.171,0.036c-0.103-0.015-0.178-0.021-0.178-0.021
						s0.041,0.05,0.146,0.128c0.051,0.047,0.133,0.044,0.229,0.068c0.094,0.015,0.211-0.014,0.32-0.057
						c0.211-0.099,0.414-0.282,0.56-0.51c0.154-0.225,0.26-0.492,0.321-0.774c0.029-0.143,0.043-0.283,0.043-0.429
						c0.018-0.142-0.03-0.291-0.045-0.427c-0.051-0.139-0.079-0.273-0.176-0.385c-0.041-0.057-0.077-0.111-0.121-0.158
						c-0.055-0.036-0.107-0.072-0.156-0.107c-0.09-0.079-0.223-0.084-0.307-0.1c-0.095-0.025-0.159,0-0.22,0.007
						C70.093,158.503,70.025,158.523,70.025,158.523z"/>
				</g>
				<g>
					<path style="fill:#92693D;" d="M44.247,159.446c0.281,1.486-0.25,2.833-1.185,3.007c-0.935,0.178-1.917-0.884-2.196-2.37
						c-0.279-1.485,0.25-2.831,1.187-3.006C42.985,156.9,43.968,157.963,44.247,159.446z"/>
					<path style="fill:#DADADA;" d="M42.565,158.523c0,0-0.063,0.03-0.172,0.069c-0.053,0.02-0.131,0.033-0.178,0.089
						c-0.052,0.051-0.113,0.074-0.15,0.148c-0.051,0.057-0.087,0.128-0.113,0.212c-0.041,0.072-0.025,0.184-0.053,0.269
						c0.004,0.205,0,0.428,0.065,0.652c0.037,0.226,0.117,0.446,0.198,0.642c0.085,0.2,0.191,0.36,0.298,0.482
						c0.057,0.044,0.111,0.098,0.17,0.123c0.056,0.011,0.122,0.053,0.17,0.036c0.104-0.015,0.179-0.021,0.179-0.021
						s-0.04,0.05-0.147,0.128c-0.047,0.047-0.131,0.044-0.227,0.068c-0.096,0.015-0.209-0.014-0.32-0.057
						c-0.212-0.099-0.418-0.282-0.561-0.51c-0.155-0.225-0.26-0.492-0.32-0.774c-0.029-0.143-0.045-0.283-0.045-0.429
						c-0.016-0.142,0.03-0.291,0.045-0.427c0.051-0.139,0.082-0.273,0.176-0.385c0.041-0.057,0.078-0.111,0.12-0.158
						c0.056-0.036,0.108-0.072,0.159-0.107c0.09-0.079,0.221-0.084,0.309-0.1c0.094-0.025,0.158,0,0.217,0.007
						C42.499,158.503,42.565,158.523,42.565,158.523z"/>
				</g>
				<rect x="52.83" y="172.321" style="fill:#92693D;" width="6.477" height="5.482"/>
				<path style="fill:#DADADA;" d="M59.308,172.89v-0.568H52.83v4.213C53.906,174.216,56.696,172.979,59.308,172.89z"/>
				<path style="fill:#92693D;" d="M69.981,155.296c0,9.697-5.88,17.559-13.907,17.559c-8.029,0-13.753-8.148-13.753-17.846
					c-0.149-12.882,5.724-17.271,13.753-17.271C64.102,137.737,70.69,141.684,69.981,155.296z"/>
				<path style="fill:#8CD0E5;" d="M62.61,177.207c-1.249,2.336-3.716,3.956-6.51,3.956c-2.799,0-5.27-1.625-6.518-3.969
					c-4.902,1.07-13.704,3.698-14.325,8.869v1.458h41.62v-1.458C76.261,180.911,67.522,178.283,62.61,177.207z"/>
				<g>
					<path style="fill:#FFFFFF;" d="M62.61,177.207c-1.249,2.336-3.716,3.956-6.51,3.956c-2.799,0-5.27-1.625-6.518-3.969
						c-0.727,0.159-1.538,0.354-2.396,0.582c1.598,3.29,4.988,5.603,8.84,5.603c3.857,0,7.255-2.32,8.848-5.623
						C64.067,177.541,63.301,177.357,62.61,177.207z"/>
				</g>
				<path style="fill:none;stroke:#432918;stroke-width:0.6637;stroke-linecap:round;stroke-miterlimit:10;" d="M46.384,152.497
					c0,0,1.766-3.24,5.106-0.872"/>
				<path style="fill:none;stroke:#432918;stroke-width:0.6637;stroke-linecap:round;stroke-miterlimit:10;" d="M65.753,152.497
					c0,0-1.767-3.24-5.105-0.872"/>
				<g>
					<path style="fill:#C6C6C6;" d="M57.757,161.327c0,0,0.076,0.057,0.181,0.183c0.097,0.129,0.255,0.313,0.353,0.597
						c0.1,0.269,0.172,0.694-0.078,1.102c-0.131,0.196-0.301,0.349-0.503,0.452c-0.192,0.089-0.399,0.159-0.595,0.198
						c-0.399,0.062-0.777,0.045-1.127,0.004c-0.342-0.063-0.656-0.135-0.916-0.225c-0.514-0.199-0.836-0.379-0.836-0.379
						s0.375-0.046,0.904-0.045c0.266-0.006,0.57-0.017,0.889-0.009c0.157-0.008,0.318-0.027,0.48-0.024
						c0.165,0.001,0.313-0.042,0.471-0.057c0.149-0.021,0.287-0.065,0.41-0.11c0.052-0.033,0.107-0.059,0.165-0.082l0.122-0.104
						c0.062-0.081,0.123-0.169,0.152-0.284c0.025-0.111,0.047-0.236,0.041-0.355c0-0.24-0.025-0.466-0.063-0.615
						C57.775,161.417,57.757,161.327,57.757,161.327z"/>
				</g>
				<g>
					<path style="fill:#FFFFFF;" d="M52.261,166.533c0.81,1.493,2.258,2.489,3.916,2.489c1.655,0,3.102-0.996,3.913-2.489H52.261z"
						/>
					<g>
						<g>
							<path style="fill:#74542F;" d="M52.261,166.533c0.234,0.334,0.49,0.653,0.767,0.934l0.45,0.39l0.49,0.329l0.52,0.267
								l0.549,0.189l0.566,0.104l0.572,0.02c0.164-0.023,0.395-0.037,0.588-0.057l0.531-0.131l0.526-0.214l0.491-0.287l0.448-0.351
								l0.401-0.405l0.356-0.447l0.31-0.483l0.263,0.442c-1.306-0.026-2.61-0.012-3.915-0.079
								C54.87,166.71,53.565,166.645,52.261,166.533z M52.261,166.533c1.305-0.112,2.609-0.177,3.914-0.221
								c1.305-0.067,2.609-0.053,3.915-0.079c0.163-0.003,0.298,0.127,0.302,0.291c0.001,0.055-0.014,0.107-0.039,0.152
								c-0.211,0.372-0.441,0.735-0.734,1.055c-0.297,0.314-0.625,0.593-0.986,0.834l-0.568,0.313l-0.607,0.229l-0.654,0.139
								l-0.627,0.034l-0.641-0.071l-0.621-0.166l-0.585-0.254l-0.539-0.331c-0.339-0.253-0.632-0.551-0.896-0.871l-0.355-0.509
								L52.261,166.533z"/>
						</g>
					</g>
				</g>
				<g>
					<path style="fill:#432918;" d="M50.706,155.705c0,0.877-0.615,1.589-1.373,1.589c-0.755,0-1.37-0.712-1.37-1.589
						c0-0.878,0.615-1.588,1.37-1.588C50.091,154.117,50.706,154.827,50.706,155.705z"/>
					<g>
						<path style="fill:#FFFFFF;" d="M48.915,155.065c0,0.352-0.281,0.64-0.633,0.64c-0.355,0-0.643-0.287-0.643-0.64
							c0-0.354,0.287-0.638,0.643-0.638C48.634,154.428,48.915,154.712,48.915,155.065z"/>
						<path style="fill:#FFFFFF;" d="M48.885,155.992c0,0.169-0.135,0.305-0.302,0.305s-0.301-0.136-0.301-0.305
							c0-0.165,0.134-0.303,0.301-0.303S48.885,155.827,48.885,155.992z"/>
					</g>
				</g>
				<g>
					<path style="fill:#432918;" d="M61.487,155.705c0,0.877,0.615,1.589,1.372,1.589c0.756,0,1.369-0.712,1.369-1.589
						c0-0.878-0.613-1.588-1.369-1.588C62.103,154.117,61.487,154.827,61.487,155.705z"/>
					<g>
						<path style="fill:#FFFFFF;" d="M63.274,155.065c0,0.352,0.289,0.64,0.639,0.64c0.354,0,0.639-0.287,0.639-0.64
							c0-0.354-0.285-0.638-0.639-0.638C63.563,154.428,63.274,154.712,63.274,155.065z"/>
						<path style="fill:#FFFFFF;" d="M63.309,155.992c0,0.169,0.136,0.305,0.303,0.305c0.169,0,0.302-0.136,0.302-0.305
							c0-0.165-0.133-0.303-0.302-0.303C63.444,155.689,63.309,155.827,63.309,155.992z"/>
					</g>
				</g>
				<g>
					<path style="fill:#432918;" d="M56.042,141.323c0,0-0.006,0.002-0.016,0.005C56.031,141.326,56.032,141.326,56.042,141.323z"/>
					<path style="fill:#432918;" d="M56.026,141.328C56.009,141.331,56.013,141.328,56.026,141.328L56.026,141.328z"/>
					<path style="fill:#432918;" d="M72.018,138.009c0-1.151-0.936-2.086-2.089-2.086c0-1.152-0.933-2.088-2.087-2.088
						c-0.323,0-0.628,0.074-0.901,0.207c-0.137-1.018-1.009-1.805-2.066-1.805c-0.633,0-1.199,0.282-1.582,0.729
						c-0.33-0.718-1.053-1.22-1.896-1.22c-0.84,0-1.559,0.497-1.893,1.21c-0.332-0.713-1.052-1.21-1.893-1.21
						c-0.693,0-1.309,0.341-1.685,0.864c-0.382-0.523-0.992-0.864-1.69-0.864c-0.742,0-1.396,0.392-1.766,0.978
						c-0.368-0.586-1.02-0.978-1.764-0.978c-0.992,0-1.816,0.688-2.033,1.61c-0.377-0.384-0.904-0.622-1.486-0.622
						c-1.034,0-1.891,0.752-2.057,1.739c-0.237-0.096-0.496-0.149-0.768-0.149c-1.152,0-2.086,0.936-2.086,2.089
						c0,0.243,0.041,0.475,0.119,0.692c-1.075,0.084-1.924,0.983-1.924,2.081c0,0.941,0.623,1.738,1.479,1.997
						c-2.049,6.633,0.015,15.894,0.015,15.894l0.644,0.217l0.346,2.472h0.665c0,0-1.302-8.138,1.235-10.522
						c0,0-0.532-6.394,2.271-7.212c0,0,5.812-1.267,8.917-0.708c2.853-0.341,9.264,0.373,9.264,0.373
						c2.979,0.496,2.084,7.547,2.084,7.547c2.537,2.385,1.234,10.522,1.234,10.522h0.668l0.344-2.472l0.645-0.217
						c0,0,2.381-10.27-0.084-16.996C71.224,139.948,72.018,139.073,72.018,138.009z"/>
				</g>
			</g>
		</g>
	</g>
	<g>
		<g>
			<defs>
				<path id="SVGID_00000150806755098798269730000015286401806394266801_" d="M259.774,59.435c0,20.141-16.328,36.467-36.469,36.467
					c-20.141,0-36.471-16.326-36.471-36.467c0-20.142,16.33-36.471,36.471-36.471C243.446,22.964,259.774,39.293,259.774,59.435z"/>
			</defs>
			<use xlink:href="#SVGID_00000150806755098798269730000015286401806394266801_"  style="overflow:visible;fill:#F39127;"/>
			<clipPath id="SVGID_00000147915060508446541060000007703748274410483390_">
				<use xlink:href="#SVGID_00000150806755098798269730000015286401806394266801_"  style="overflow:visible;"/>
			</clipPath>
			<g style="clip-path:url(#SVGID_00000147915060508446541060000007703748274410483390_);">
				<path style="fill:#FAC9AA;" d="M227.234,82.649h-3.929h-3.93c0,0-20.266,2.762-21.313,11.482v1.77h25.242h25.242v-1.77
					C247.502,85.411,227.234,82.649,227.234,82.649z"/>
				<g>
					<path style="fill:#FAC9AA;" d="M238.196,61.849c-0.338,1.803,0.305,3.434,1.438,3.647c1.135,0.216,2.325-1.072,2.666-2.874
						c0.338-1.802-0.307-3.436-1.439-3.649C239.726,58.76,238.534,60.048,238.196,61.849z"/>
					<path style="fill:#DADADA;" d="M240.235,60.728c0,0,0.075,0.038,0.21,0.084c0.064,0.024,0.159,0.042,0.217,0.108
						c0.062,0.063,0.134,0.088,0.183,0.18c0.061,0.068,0.104,0.155,0.135,0.258c0.049,0.085,0.032,0.223,0.063,0.327
						c-0.001,0.247,0,0.518-0.075,0.791c-0.045,0.274-0.144,0.542-0.241,0.779c-0.104,0.243-0.232,0.435-0.361,0.581
						c-0.068,0.052-0.135,0.122-0.205,0.151c-0.071,0.014-0.15,0.065-0.211,0.041c-0.12-0.016-0.214-0.022-0.214-0.022
						s0.052,0.058,0.178,0.153c0.06,0.059,0.161,0.054,0.278,0.086c0.116,0.013,0.251-0.021,0.387-0.07
						c0.257-0.12,0.505-0.345,0.679-0.619c0.189-0.274,0.316-0.601,0.392-0.938c0.032-0.172,0.053-0.344,0.053-0.521
						c0.021-0.171-0.035-0.352-0.055-0.516c-0.064-0.169-0.099-0.333-0.212-0.467c-0.05-0.067-0.097-0.136-0.15-0.191
						c-0.066-0.045-0.128-0.09-0.19-0.131c-0.107-0.095-0.268-0.099-0.373-0.122c-0.115-0.029-0.19,0.003-0.262,0.01
						C240.319,60.703,240.235,60.728,240.235,60.728z"/>
				</g>
				<g>
					<path style="fill:#FAC9AA;" d="M208.966,61.849c0.341,1.803-0.305,3.434-1.438,3.647c-1.132,0.216-2.328-1.072-2.664-2.874
						c-0.338-1.802,0.307-3.436,1.439-3.649C207.436,58.76,208.628,60.048,208.966,61.849z"/>
					<path style="fill:#DADADA;" d="M206.925,60.728c0,0-0.072,0.038-0.207,0.084c-0.064,0.024-0.16,0.042-0.219,0.108
						c-0.06,0.063-0.133,0.088-0.182,0.18c-0.061,0.068-0.104,0.155-0.133,0.258c-0.05,0.085-0.033,0.223-0.066,0.327
						c0.002,0.247,0,0.518,0.076,0.791c0.047,0.274,0.145,0.542,0.243,0.779c0.102,0.243,0.23,0.435,0.359,0.581
						c0.069,0.052,0.135,0.122,0.206,0.151c0.07,0.014,0.148,0.065,0.208,0.041c0.124-0.016,0.216-0.022,0.216-0.022
						s-0.049,0.058-0.176,0.153c-0.063,0.059-0.162,0.054-0.279,0.086c-0.113,0.013-0.252-0.021-0.387-0.07
						c-0.258-0.12-0.506-0.345-0.682-0.619c-0.184-0.274-0.313-0.601-0.388-0.938c-0.034-0.172-0.054-0.344-0.054-0.521
						c-0.02-0.171,0.035-0.352,0.056-0.516c0.063-0.169,0.097-0.333,0.212-0.467c0.052-0.067,0.097-0.136,0.146-0.191
						c0.068-0.045,0.131-0.09,0.193-0.131c0.108-0.095,0.265-0.099,0.373-0.122c0.114-0.029,0.191,0.003,0.264,0.01
						C206.844,60.703,206.925,60.728,206.925,60.728z"/>
				</g>
				<rect x="219.376" y="77.468" style="fill:#FAC9AA;" width="7.858" height="6.648"/>
				<path style="fill:#DADADA;" d="M227.234,78.155v-0.688h-7.858v5.108C220.684,79.763,224.064,78.263,227.234,78.155z"/>
				<path style="fill:#FAC9AA;" d="M240.185,56.813c0,11.764-7.134,21.3-16.872,21.3c-9.741,0-16.686-9.885-16.686-21.646
					c-0.176-15.627,6.945-20.951,16.686-20.951C233.051,35.515,241.041,40.303,240.185,56.813z"/>
				<path style="fill:#BE1622;" d="M228.329,82.823c-0.756,1.838-2.426,3.264-5.018,3.264c-2.596,0-4.264-1.426-5.021-3.265
					c-4.209,0.716-19.327,3.806-20.226,11.31v1.77h50.484v-1.77C247.65,86.631,232.547,83.542,228.329,82.823z"/>
				<g>
					<path style="fill:#842426;" d="M228.329,82.823c-0.756,1.838-2.426,3.264-5.018,3.264c-2.596,0-4.264-1.426-5.021-3.265
						c-0.439,0.074-1.003,0.177-1.65,0.306c0.84,2.852,3.502,4.983,6.592,4.983h0.08c3.094,0,5.764-2.14,6.595-4.997
						C229.29,82.992,228.754,82.896,228.329,82.823z"/>
				</g>
				<path style="fill:none;stroke:#432918;stroke-width:0.8051;stroke-linecap:round;stroke-miterlimit:10;" d="M211.557,53.418
					c0,0,2.146-3.931,6.196-1.058"/>
				<path style="fill:none;stroke:#432918;stroke-width:0.8051;stroke-linecap:round;stroke-miterlimit:10;" d="M235.054,53.418
					c0,0-2.145-3.931-6.193-1.058"/>
				<g>
					<path style="fill:#D3AC91;" d="M225.352,64.128c0,0,0.091,0.069,0.221,0.221c0.129,0.151,0.307,0.382,0.427,0.725
						c0.067,0.168,0.112,0.373,0.11,0.603c0.003,0.23-0.059,0.498-0.205,0.733c-0.084,0.107-0.172,0.226-0.271,0.322
						c-0.107,0.079-0.22,0.157-0.339,0.227c-0.234,0.108-0.484,0.194-0.723,0.24c-0.237,0.02-0.481,0.065-0.706,0.053
						c-0.227-0.003-0.447-0.033-0.66-0.049c-0.414-0.075-0.797-0.162-1.111-0.271c-0.627-0.23-1.015-0.461-1.015-0.461
						s0.457-0.067,1.098-0.054c0.322-0.008,0.69-0.021,1.078-0.011c0.191-0.01,0.386-0.033,0.583-0.029
						c0.2,0.002,0.379-0.051,0.57-0.068c0.182-0.025,0.35-0.08,0.5-0.134c0.062-0.04,0.128-0.071,0.199-0.099l0.146-0.127
						c0.076-0.098,0.15-0.204,0.186-0.344c0.031-0.136,0.057-0.286,0.051-0.432c0-0.292-0.045-0.56-0.079-0.745
						C225.374,64.237,225.352,64.128,225.352,64.128z"/>
				</g>
				<g>
					<path style="fill:#FFFFFF;" d="M218.686,70.445c0.983,1.809,2.74,3.017,4.75,3.017c2.009,0,3.764-1.208,4.747-3.017H218.686z"
						/>
					<g>
						<path style="fill:#E2B79B;" d="M218.686,70.445l0.442,0.594l0.488,0.538l0.547,0.472l0.595,0.398l0.631,0.323L222.054,73
							l0.688,0.127l0.694,0.023c0.197-0.028,0.477-0.048,0.711-0.072l0.643-0.164l0.635-0.263l0.595-0.344l0.546-0.421l0.489-0.488
							l0.433-0.542l0.371-0.588l0.325,0.547c-1.583-0.009-3.165-0.031-4.749-0.103C221.852,70.66,220.27,70.582,218.686,70.445z
							 M218.686,70.445c1.583-0.137,3.166-0.215,4.748-0.268c1.584-0.071,3.166-0.094,4.749-0.102h0.017
							c0.199-0.001,0.36,0.158,0.361,0.357c0,0.068-0.019,0.135-0.053,0.189l-0.408,0.666c-0.155,0.209-0.322,0.41-0.487,0.611
							c-0.181,0.188-0.375,0.365-0.563,0.547c-0.204,0.164-0.419,0.314-0.63,0.472c-0.225,0.134-0.458,0.258-0.689,0.382
							l-0.74,0.273l-0.795,0.162l-0.762,0.038l-0.777-0.087l-0.752-0.2l-0.709-0.308l-0.654-0.402
							c-0.199-0.159-0.396-0.322-0.582-0.492c-0.169-0.189-0.344-0.371-0.505-0.563l-0.431-0.617L218.686,70.445z"/>
					</g>
				</g>
				<g>
					<path style="fill:#432918;" d="M216.798,57.309c0,1.063-0.744,1.927-1.66,1.927c-0.92,0-1.664-0.863-1.664-1.927
						c0-1.064,0.744-1.926,1.664-1.926C216.054,55.383,216.798,56.245,216.798,57.309z"/>
					<g>
						<path style="fill:#FFFFFF;" d="M214.632,56.533c0,0.429-0.35,0.775-0.773,0.775c-0.43,0-0.777-0.347-0.777-0.775
							s0.348-0.773,0.777-0.773C214.282,55.76,214.632,56.104,214.632,56.533z"/>
						<path style="fill:#FFFFFF;" d="M214.591,57.66c0,0.202-0.163,0.367-0.365,0.367c-0.205,0-0.367-0.165-0.367-0.367
							c0-0.205,0.162-0.368,0.367-0.368C214.428,57.292,214.591,57.455,214.591,57.66z"/>
					</g>
				</g>
				<g>
					<path style="fill:#432918;" d="M229.881,57.309c0,1.063,0.744,1.927,1.661,1.927c0.918,0,1.664-0.863,1.664-1.927
						c0-1.064-0.746-1.926-1.664-1.926C230.625,55.383,229.881,56.245,229.881,57.309z"/>
					<g>
						<path style="fill:#FFFFFF;" d="M232.048,56.533c0,0.429,0.349,0.775,0.777,0.775c0.424,0,0.773-0.347,0.773-0.775
							s-0.35-0.773-0.773-0.773C232.396,55.76,232.048,56.104,232.048,56.533z"/>
						<path style="fill:#FFFFFF;" d="M232.088,57.66c0,0.202,0.165,0.367,0.367,0.367c0.203,0,0.37-0.165,0.37-0.367
							c0-0.205-0.167-0.368-0.37-0.368C232.253,57.292,232.088,57.455,232.088,57.66z"/>
					</g>
				</g>
				<path style="fill:#5F3A2C;" d="M237.165,33.202c0,0,3.011,2.657,6.142-1.316c0,0-0.358,3.82-2.587,5.223
					c0,0,2.107,2.08,4.635-0.067c0,0,0.721,2.673-2.168,5.203c0,0,0.488,7.376-1.48,14.568l-0.846,2.16l-0.781,0.263l-0.42,2.998
					h-0.807l0.882-9.87c0,0,0.808-11.687-9.854-12.048c0,0-4.767-0.853-5.604,2.645c0,0-0.162-3.608-6.523-2.645
					c0,0-3.098-4.801,1.623-9.033C219.376,31.282,226.928,25.486,237.165,33.202z"/>
				<path style="fill:#5F3A2C;" d="M209.893,33.202c10.236-7.716,20.407-3.492,20.407-3.492c4.724,4.229-0.997,10.605-0.997,10.605
					c-4.482-0.48-5.027,2.645-5.027,2.645c-0.06-3.789-7.1-2.645-7.1-2.645c-8.857,0.42-9.158,12.048-9.158,12.048l0.187,9.87
					h-0.806l-0.423-2.998l-0.778-0.263C206.198,58.973,200.926,40.06,209.893,33.202z"/>
			</g>
		</g>
	</g>
	<g>
		<g>
			<defs>
				
					<ellipse id="SVGID_00000176757892015466434920000011607017859468794521_" transform="matrix(0.7071 -0.7071 0.7071 0.7071 -35.2663 295.1525)" cx="338.647" cy="190.146" rx="29.123" ry="29.123"/>
			</defs>
			<use xlink:href="#SVGID_00000176757892015466434920000011607017859468794521_"  style="overflow:visible;fill:#94B17A;"/>
			<clipPath id="SVGID_00000147219502198204453250000009351974100004120229_">
				<use xlink:href="#SVGID_00000176757892015466434920000011607017859468794521_"  style="overflow:visible;"/>
			</clipPath>
			<g style="clip-path:url(#SVGID_00000147219502198204453250000009351974100004120229_);">
				<path style="fill:#FAC9AA;" d="M341.786,208.686h-3.14h-3.137c0,0-16.185,2.204-17.021,9.171v1.413h20.157h20.159v-1.413
					C357.97,210.89,341.786,208.686,341.786,208.686z"/>
				<g>
					<path style="fill:#FAC9AA;" d="M350.538,192.075c-0.271,1.438,0.242,2.743,1.147,2.912c0.908,0.171,1.857-0.857,2.129-2.297
						c0.271-1.438-0.244-2.741-1.15-2.912C351.76,189.608,350.808,190.637,350.538,192.075z"/>
					<path style="fill:#DADADA;" d="M352.167,191.181c0,0,0.061,0.028,0.168,0.067c0.05,0.019,0.127,0.03,0.172,0.085
						c0.05,0.051,0.107,0.071,0.145,0.144c0.051,0.056,0.084,0.124,0.108,0.207c0.04,0.067,0.026,0.177,0.052,0.261
						c0,0.197,0,0.414-0.06,0.63c-0.036,0.22-0.113,0.434-0.193,0.624c-0.082,0.194-0.184,0.347-0.288,0.465
						c-0.056,0.041-0.108,0.096-0.165,0.121c-0.056,0.008-0.117,0.05-0.164,0.033c-0.098-0.014-0.172-0.02-0.172-0.02
						s0.039,0.046,0.141,0.121c0.047,0.047,0.129,0.044,0.221,0.069c0.093,0.013,0.203-0.015,0.31-0.057
						c0.205-0.095,0.403-0.274,0.543-0.494c0.149-0.218,0.25-0.478,0.311-0.749c0.027-0.137,0.043-0.274,0.043-0.414
						c0.016-0.139-0.027-0.283-0.045-0.414c-0.05-0.135-0.076-0.265-0.17-0.372c-0.04-0.056-0.076-0.107-0.117-0.153
						c-0.053-0.036-0.104-0.07-0.152-0.105c-0.086-0.075-0.213-0.078-0.299-0.096c-0.092-0.023-0.152,0.001-0.209,0.007
						C352.23,191.161,352.167,191.181,352.167,191.181z"/>
				</g>
				<g>
					<path style="fill:#FAC9AA;" d="M327.196,192.075c0.272,1.438-0.244,2.743-1.148,2.912c-0.904,0.171-1.857-0.857-2.128-2.297
						c-0.268-1.438,0.245-2.741,1.151-2.912C325.976,189.608,326.927,190.637,327.196,192.075z"/>
					<path style="fill:#DADADA;" d="M325.567,191.181c0,0-0.06,0.028-0.166,0.067c-0.053,0.019-0.127,0.03-0.174,0.085
						c-0.049,0.051-0.107,0.071-0.147,0.144c-0.047,0.056-0.083,0.124-0.105,0.207c-0.04,0.067-0.027,0.177-0.055,0.261
						c0.002,0.197,0.002,0.414,0.063,0.63c0.037,0.22,0.115,0.434,0.193,0.624c0.082,0.194,0.184,0.347,0.286,0.465
						c0.056,0.041,0.11,0.096,0.167,0.121c0.055,0.008,0.117,0.05,0.166,0.033c0.096-0.014,0.171-0.02,0.171-0.02
						s-0.04,0.046-0.142,0.121c-0.049,0.047-0.127,0.044-0.221,0.069c-0.092,0.013-0.203-0.015-0.311-0.057
						c-0.205-0.095-0.402-0.274-0.542-0.494c-0.149-0.218-0.251-0.478-0.313-0.749c-0.025-0.137-0.04-0.274-0.04-0.414
						c-0.016-0.139,0.028-0.283,0.045-0.414c0.049-0.135,0.077-0.265,0.169-0.372c0.041-0.056,0.075-0.107,0.117-0.153
						c0.053-0.036,0.104-0.07,0.153-0.105c0.087-0.075,0.212-0.078,0.298-0.096c0.092-0.023,0.151,0.001,0.211,0.007
						C325.502,191.161,325.567,191.181,325.567,191.181z"/>
				</g>
				<rect x="335.51" y="204.548" style="fill:#FAC9AA;" width="6.276" height="5.31"/>
				<path style="fill:#DADADA;" d="M341.786,205.096v-0.548h-6.276v4.078C336.552,206.381,339.253,205.184,341.786,205.096z"/>
				<path style="fill:#FAC9AA;" d="M352.126,188.054c0,9.395-5.696,17.01-13.473,17.01c-7.777,0-13.324-7.895-13.324-17.287
					c-0.143-12.479,5.547-16.73,13.324-16.73C346.43,171.047,352.811,174.868,352.126,188.054z"/>
				<path style="fill:#FFFFFF;" d="M342.659,208.824c-0.604,1.469-1.939,2.606-4.006,2.606c-2.074,0-3.407-1.139-4.012-2.607
					c-3.36,0.572-15.434,3.04-16.152,9.033v1.413h40.316v-1.413C358.087,211.866,346.026,209.399,342.659,208.824z"/>
				<g>
					<path style="fill:#00ACBB;" d="M342.659,208.824c-0.604,1.469-1.939,2.606-4.006,2.606c-2.074,0-3.407-1.139-4.012-2.607
						c-0.35,0.06-0.8,0.141-1.316,0.244c0.667,2.277,2.795,3.979,5.264,3.979h0.064c2.471,0,4.602-1.707,5.266-3.988
						C343.427,208.958,342.997,208.883,342.659,208.824z"/>
				</g>
				<path style="fill:none;stroke:#432918;stroke-width:0.6429;stroke-linecap:round;stroke-miterlimit:10;" d="M329.265,185.342
					c0,0,1.712-3.137,4.948-0.843"/>
				<path style="fill:none;stroke:#432918;stroke-width:0.6429;stroke-linecap:round;stroke-miterlimit:10;" d="M348.03,185.342
					c0,0-1.714-3.137-4.949-0.843"/>
				<g>
					<path style="fill:#D3AC91;" d="M340.281,193.895c0,0,0.073,0.055,0.175,0.177c0.094,0.125,0.248,0.304,0.342,0.578
						c0.098,0.26,0.168,0.672-0.075,1.067c-0.126,0.189-0.292,0.338-0.487,0.438c-0.186,0.087-0.387,0.155-0.576,0.192
						c-0.387,0.06-0.753,0.043-1.092,0.003c-0.33-0.06-0.636-0.129-0.887-0.217c-0.499-0.192-0.811-0.367-0.811-0.367
						s0.363-0.045,0.877-0.043c0.257-0.007,0.551-0.018,0.86-0.01c0.152-0.007,0.308-0.025,0.466-0.023
						c0.16,0.002,0.303-0.04,0.455-0.055c0.146-0.02,0.279-0.063,0.398-0.106c0.05-0.032,0.104-0.057,0.16-0.079l0.117-0.101
						c0.06-0.078,0.12-0.163,0.147-0.275c0.025-0.108,0.046-0.229,0.04-0.345c-0.001-0.233-0.025-0.45-0.061-0.596
						C340.3,193.982,340.281,193.895,340.281,193.895z"/>
				</g>
				<g>
					<path style="fill:#FFFFFF;" d="M334.958,198.94c0.787,1.443,2.189,2.409,3.794,2.409c1.605,0,3.006-0.966,3.792-2.409H334.958z
						"/>
					<g>
						<path style="fill:#E2B79B;" d="M334.958,198.94c0.228,0.322,0.477,0.632,0.744,0.902l0.438,0.377l0.475,0.319l0.503,0.259
							l0.531,0.183l0.548,0.102l0.555,0.019c0.158-0.023,0.381-0.036,0.568-0.055l0.516-0.127l0.51-0.207l0.475-0.277
							c0.302-0.213,0.576-0.458,0.824-0.732l0.346-0.433l0.3-0.468l0.255,0.429c-1.265-0.025-2.529-0.011-3.793-0.076
							C337.487,199.112,336.222,199.05,334.958,198.94z M334.958,198.94c1.264-0.109,2.529-0.172,3.793-0.214
							c1.264-0.065,2.528-0.051,3.793-0.076c0.158-0.003,0.289,0.122,0.293,0.281c0,0.053-0.014,0.105-0.039,0.148
							c-0.205,0.361-0.428,0.713-0.711,1.021c-0.288,0.304-0.607,0.574-0.956,0.807l-0.55,0.303l-0.589,0.221l-0.634,0.135
							l-0.607,0.033l-0.621-0.07l-0.601-0.16l-0.566-0.245l-0.522-0.321c-0.328-0.245-0.612-0.533-0.867-0.843l-0.346-0.492
							L334.958,198.94z"/>
					</g>
				</g>
				<g>
					<path style="fill:#432918;" d="M333.452,188.449c0,0.849-0.596,1.539-1.326,1.539c-0.734,0-1.329-0.69-1.329-1.539
						s0.595-1.539,1.329-1.539C332.856,186.91,333.452,187.601,333.452,188.449z"/>
					<g>
						<path style="fill:#FFFFFF;" d="M331.721,187.83c0,0.343-0.278,0.619-0.619,0.619c-0.341,0-0.618-0.276-0.618-0.619
							c0-0.341,0.277-0.618,0.618-0.618C331.442,187.212,331.721,187.489,331.721,187.83z"/>
						<path style="fill:#FFFFFF;" d="M331.689,188.73c0,0.161-0.131,0.292-0.293,0.292c-0.161,0-0.294-0.131-0.294-0.292
							c0-0.164,0.133-0.294,0.294-0.294C331.558,188.436,331.689,188.566,331.689,188.73z"/>
					</g>
				</g>
				<g>
					<path style="fill:#432918;" d="M343.899,188.449c0,0.849,0.593,1.539,1.326,1.539c0.732,0,1.328-0.69,1.328-1.539
						s-0.596-1.539-1.328-1.539C344.492,186.91,343.899,187.601,343.899,188.449z"/>
					<g>
						<path style="fill:#FFFFFF;" d="M345.63,187.83c0,0.343,0.277,0.619,0.617,0.619c0.342,0,0.62-0.276,0.62-0.619
							c0-0.341-0.278-0.618-0.62-0.618C345.907,187.212,345.63,187.489,345.63,187.83z"/>
						<path style="fill:#FFFFFF;" d="M345.66,188.73c0,0.161,0.132,0.292,0.294,0.292s0.293-0.131,0.293-0.292
							c0-0.164-0.131-0.294-0.293-0.294S345.66,188.566,345.66,188.73z"/>
					</g>
				</g>
				<path style="fill:#976743;" d="M339.253,175.099c0,0,8.932-0.242,10.62,6.998c0,0,1.691,5.477,0.665,9.979h1.217l0.42-2.314
					c0,0,2.103-8.145,0.652-13.938c0,0-2.115-8.085-11.041-9.292c0,0-3.498,0.12-6.828-2.654c0,0,0.579,2.775,2.484,3.016
					c0,0-4.961,0.846-6.341-1.811c0,0,0.364,3.381,3.111,3.621c0,0-10.194,0.669-9.817,11.041c0,0-0.084,5.599,1.164,10.057
					l0.407,2.275h1.229c0,0-1.637-8.415,1.281-11.73C328.478,180.345,330.928,175.22,339.253,175.099z"/>
			</g>
		</g>
	</g>
	<g>
		<g>
			<defs>
				<path id="SVGID_00000111875981784570565190000001683331643363657859_" d="M326.776,112.882c0,18.58-15.061,33.643-33.642,33.643
					c-18.581,0-33.643-15.063-33.643-33.643c0-18.582,15.062-33.646,33.643-33.646C311.716,79.236,326.776,94.3,326.776,112.882z"/>
			</defs>
			<use xlink:href="#SVGID_00000111875981784570565190000001683331643363657859_"  style="overflow:visible;fill:#FDC300;"/>
			<clipPath id="SVGID_00000042721194609942510080000016016596787457143742_">
				<use xlink:href="#SVGID_00000111875981784570565190000001683331643363657859_"  style="overflow:visible;"/>
			</clipPath>
			<g style="clip-path:url(#SVGID_00000042721194609942510080000016016596787457143742_);">
				<rect x="279.21" y="117.106" width="26.838" height="17.124"/>
				<rect x="288.515" y="129.098" style="fill:#FAC9AA;" width="7.247" height="6.136"/>
				<path style="fill:#DADADA;" d="M294.231,131.143c0.549,0,1.057,0.058,1.53,0.164v-2.209h-7.247v5.98
					C289.297,132.886,291.201,131.143,294.231,131.143z"/>
				<path style="fill:#FAC9AA;" d="M295.245,134.304h-3.105h-3.107c0,0-12.418-0.665-14.81,12.221h17.917h17.914
					C307.666,133.639,295.245,134.304,295.245,134.304z"/>
				<path style="fill:#FAC9AA;" d="M307.04,111.534c0,10.548-6.169,19.1-14.9,19.1c-8.736,0-14.904-8.552-14.904-19.1
					c0-10.547,6.168-19.099,14.904-19.099C300.871,92.436,307.04,100.987,307.04,111.534z"/>
				<g>
					<path style="fill:#FAC9AA;" d="M305.15,116.081c-0.315,1.662,0.28,3.17,1.322,3.365c1.048,0.196,2.147-0.992,2.462-2.652
						c0.31-1.662-0.285-3.17-1.326-3.365C306.561,113.231,305.46,114.419,305.15,116.081z"/>
					<path style="fill:#DADADA;" d="M307.031,115.047c0,0,0.069,0.034,0.192,0.077c0.059,0.023,0.146,0.039,0.199,0.101
						c0.057,0.058,0.123,0.082,0.168,0.167c0.058,0.063,0.099,0.143,0.124,0.237c0.048,0.077,0.03,0.202,0.062,0.301
						c-0.003,0.228,0,0.478-0.07,0.729c-0.045,0.255-0.133,0.502-0.223,0.72c-0.096,0.226-0.213,0.403-0.334,0.536
						c-0.065,0.051-0.124,0.112-0.19,0.141c-0.063,0.011-0.139,0.058-0.192,0.041c-0.114-0.019-0.196-0.024-0.196-0.024
						s0.043,0.052,0.162,0.14c0.055,0.055,0.148,0.052,0.256,0.079c0.108,0.016,0.23-0.02,0.359-0.063
						c0.235-0.111,0.461-0.317,0.625-0.571c0.17-0.251,0.292-0.552,0.359-0.865c0.033-0.159,0.049-0.319,0.049-0.481
						c0.02-0.157-0.032-0.324-0.051-0.475c-0.059-0.156-0.09-0.308-0.197-0.433c-0.046-0.062-0.087-0.124-0.136-0.178
						c-0.059-0.039-0.118-0.08-0.176-0.118c-0.103-0.088-0.247-0.095-0.345-0.111c-0.107-0.028-0.176,0-0.24,0.008
						C307.106,115.024,307.031,115.047,307.031,115.047z"/>
				</g>
				<g>
					<path style="fill:#FAC9AA;" d="M279.128,116.081c0.314,1.662-0.28,3.17-1.324,3.365c-1.047,0.196-2.149-0.992-2.461-2.652
						c-0.313-1.662,0.279-3.17,1.328-3.365C277.716,113.231,278.814,114.419,279.128,116.081z"/>
					<path style="fill:#DADADA;" d="M277.243,115.047c0,0-0.069,0.034-0.189,0.077c-0.063,0.023-0.148,0.039-0.201,0.101
						c-0.057,0.058-0.124,0.082-0.168,0.167c-0.057,0.063-0.096,0.143-0.124,0.237c-0.047,0.077-0.03,0.202-0.059,0.301
						c0.002,0.228,0,0.478,0.066,0.729c0.047,0.255,0.133,0.502,0.228,0.72c0.094,0.226,0.211,0.403,0.331,0.536
						c0.064,0.051,0.124,0.112,0.192,0.141c0.063,0.011,0.135,0.058,0.189,0.041c0.112-0.019,0.197-0.024,0.197-0.024
						s-0.043,0.052-0.163,0.14c-0.053,0.055-0.148,0.052-0.256,0.079c-0.108,0.016-0.232-0.02-0.355-0.063
						c-0.237-0.111-0.466-0.317-0.627-0.571c-0.174-0.251-0.293-0.552-0.361-0.865c-0.03-0.159-0.049-0.319-0.049-0.481
						c-0.02-0.157,0.035-0.324,0.051-0.475c0.059-0.156,0.092-0.308,0.197-0.433c0.047-0.062,0.088-0.124,0.135-0.178
						c0.06-0.039,0.119-0.08,0.178-0.118c0.101-0.088,0.246-0.095,0.345-0.111c0.107-0.028,0.173,0,0.242,0.008
						C277.169,115.024,277.243,115.047,277.243,115.047z"/>
				</g>
				<path style="fill:none;stroke:#432918;stroke-width:0.7427;stroke-linecap:round;stroke-miterlimit:10;" d="M302.806,109.273
					c0,0-0.6-3.887-5.715-0.974"/>
				<path style="fill:none;stroke:#432918;stroke-width:0.7427;stroke-linecap:round;stroke-miterlimit:10;" d="M281.915,109.273
					c0,0,0.602-3.887,5.719-0.974"/>
				<g>
					<g>
						<path style="fill:#D3AC91;" d="M289.832,120.344c1.045,0.049,2.12,0.084,3.015-0.235c0.441-0.162,0.775-0.443,0.92-0.816
							c0.078-0.186,0.1-0.398,0.107-0.615c0.002-0.211-0.034-0.46-0.089-0.639l-0.013-0.041l-0.005-0.041
							c-0.101-0.814-0.122-1.637,0.142-2.491c0.441,0.776,0.6,1.585,0.677,2.401l-0.018-0.082c0.05,0.174,0.071,0.305,0.091,0.459
							c0.017,0.148,0.025,0.299,0.02,0.451c-0.009,0.305-0.075,0.619-0.217,0.908c-0.139,0.29-0.355,0.549-0.609,0.734
							c-0.258,0.184-0.544,0.294-0.824,0.363c-0.564,0.146-1.122,0.111-1.653,0.04C290.845,120.65,290.326,120.529,289.832,120.344z
							"/>
					</g>
				</g>
				<g>
					<path style="fill:#FFFFFF;" d="M288.558,123.132c0.739,1.559,2.064,2.6,3.582,2.6c1.514,0,2.84-1.041,3.58-2.6H288.558z"/>
					<g>
						<path style="fill:#DD9A8D;" d="M288.558,123.132c0.211,0.329,0.431,0.654,0.68,0.939c0.254,0.285,0.542,0.535,0.845,0.755
							c0.306,0.218,0.639,0.383,0.985,0.502c0.174,0.054,0.355,0.079,0.531,0.122l0.54,0.026l0.556-0.062
							c0.164-0.053,0.329-0.086,0.493-0.146c0.333-0.137,0.646-0.316,0.929-0.543c0.282-0.229,0.531-0.495,0.754-0.785
							c0.223-0.292,0.414-0.605,0.588-0.934l0.262,0.415c-1.193-0.021-2.387-0.015-3.581-0.078
							C290.944,123.302,289.751,123.238,288.558,123.132z M288.558,123.132c1.193-0.106,2.387-0.17,3.581-0.212
							c1.194-0.063,2.388-0.057,3.581-0.078c0.158-0.003,0.289,0.122,0.293,0.281c0,0.047-0.012,0.094-0.031,0.134
							c-0.182,0.365-0.379,0.725-0.631,1.053c-0.259,0.321-0.551,0.617-0.881,0.871c-0.332,0.251-0.702,0.45-1.096,0.598
							c-0.201,0.069-0.42,0.111-0.63,0.163c-0.208,0.021-0.367,0.03-0.606,0.045c-0.208-0.026-0.416-0.046-0.621-0.081
							c-0.198-0.062-0.401-0.11-0.592-0.187c-0.38-0.165-0.73-0.378-1.041-0.638c-0.309-0.264-0.563-0.576-0.789-0.902
							C288.87,123.845,288.702,123.496,288.558,123.132z"/>
					</g>
				</g>
				<g>
					<path style="fill:#432918;" d="M285.881,111.893c0,0.981-0.686,1.778-1.532,1.778s-1.534-0.797-1.534-1.778
						c0-0.981,0.689-1.777,1.534-1.777S285.881,110.911,285.881,111.893z"/>
					<g>
						<path style="fill:#FFFFFF;" d="M283.881,111.179c0,0.393-0.321,0.714-0.713,0.714c-0.395,0-0.718-0.32-0.718-0.714
							c0-0.396,0.323-0.716,0.718-0.716C283.56,110.463,283.881,110.782,283.881,111.179z"/>
						<path style="fill:#FFFFFF;" d="M283.845,112.216c0,0.187-0.152,0.339-0.338,0.339c-0.188,0-0.339-0.152-0.339-0.339
							c0-0.188,0.151-0.338,0.339-0.338C283.692,111.878,283.845,112.028,283.845,112.216z"/>
					</g>
				</g>
				<g>
					<path style="fill:#432918;" d="M297.95,111.893c0,0.981,0.688,1.778,1.532,1.778c0.849,0,1.534-0.797,1.534-1.778
						c0-0.981-0.686-1.777-1.534-1.777C298.638,110.115,297.95,110.911,297.95,111.893z"/>
					<g>
						<path style="fill:#FFFFFF;" d="M299.948,111.179c0,0.393,0.32,0.714,0.715,0.714c0.395,0,0.717-0.32,0.717-0.714
							c0-0.396-0.322-0.716-0.717-0.716C300.268,110.463,299.948,110.782,299.948,111.179z"/>
						<path style="fill:#FFFFFF;" d="M299.985,112.216c0,0.187,0.152,0.339,0.339,0.339c0.189,0,0.339-0.152,0.339-0.339
							c0-0.188-0.15-0.338-0.339-0.338C300.138,111.878,299.985,112.028,299.985,112.216z"/>
					</g>
				</g>
				<path style="fill:#E74645;" d="M300.857,135.233c-0.546-0.221-0.393-0.143-0.911-0.29c0,0,0.998,8.984-7.586,9.25
					c-0.072,0-0.146,0.002-0.213,0.002c-0.068,0-0.141-0.002-0.211-0.002c-8.587-0.266-7.588-9.25-7.588-9.25
					c-0.516,0.148-0.369,0.069-0.913,0.29c0,0,2.711,6.654-4.569,11.291h12.597h1.367h12.601
					C298.146,141.888,300.857,135.233,300.857,135.233z"/>
				<path style="fill:#341C10;" d="M277.235,113.407"/>
				<path style="fill:#341C10;" d="M285.542,92.787"/>
				<path style="fill:#341C10;" d="M277.705,97.911c-6.376,12.204-2.446,30.167-2.446,30.167c1.54,9.836,10.803,6.181,10.803,6.181
					c-11.564-11.127-6.082-31.053-6.082-31.053L277.705,97.911z"/>
				<path style="fill:#341C10;" d="M279.979,103.206c0,0,2.489-8.186,6.783-7.184c0,0,0.213-4.617-2.861-3.587
					c0,0-4.923,0.984-6.83,6.8L279.979,103.206z"/>
				<path style="fill:#341C10;" d="M308.084,95.246c6.376,12.203,3.454,32.554,3.454,32.554c-0.707,9.861-13.475,6.398-13.475,6.398
					c11.563-11.128,6.079-31.053,6.079-31.053L308.084,95.246z"/>
				<path style="fill:#341C10;" d="M304.143,103.146c0,0-2.489-8.184-6.778-7.183c0,0-0.216-4.619,2.858-3.586
					c0,0,4.922,0.982,6.834,6.796L304.143,103.146z"/>
				<path style="fill:#341C10;" d="M308.084,95.246l-3.265,11.173c0,0-23.066-0.684-20.471-14.094c0,0,0.035-5.082,6.478-5.525
					C290.827,86.8,301.017,84.023,308.084,95.246z"/>
			</g>
		</g>
	</g>
	<path style="fill:#9D9D9C;" d="M267.179,400.179c0,8.543-31.135,15.467-69.539,15.467c-38.406,0-69.541-6.924-69.541-15.467
		c0-8.541,31.135-15.467,69.541-15.467C236.044,384.712,267.179,391.638,267.179,400.179z"/>
	<g>
		<path style="fill:#6EBEBF;" d="M280.748,313.915c0,47.149-38.218,85.371-85.369,85.371c-47.146,0-85.366-38.222-85.366-85.371
			c0-47.148,38.22-85.371,85.366-85.371C242.53,228.544,280.748,266.767,280.748,313.915z"/>
		<path style="fill:#EDEDED;" d="M212.142,366.889c-40.15,0-72.693-32.547-72.693-72.697c0-27.41,15.172-51.276,37.574-63.661
			c-38.324,8.398-67.01,42.539-67.01,83.385c0,47.149,38.22,85.371,85.366,85.371c45.564,0,82.784-35.693,85.236-80.642
			C270.575,346.763,243.709,366.889,212.142,366.889z"/>
		<g>
			<path style="fill:#95C11F;stroke:#569024;stroke-width:0.9457;stroke-miterlimit:10;" d="M124.044,269.806
				c0.545-0.216,0.936-0.061,1.494-0.024c0.547,0.03,1.442-0.185,1.884-0.551c0.147-0.122,0.35-0.281,0.309-0.493
				c-0.041-0.18-0.225-0.181-0.321-0.302c-0.268-0.408,0.35-0.487,0.215-0.895c-0.107-0.356-0.496-0.149-0.778-0.175
				c-0.45-0.042-0.626-0.531-0.774-0.93c-0.186-0.508-0.172-1.207-0.477-1.64c-0.005-0.011-0.018-0.018-0.024-0.026
				c-0.942,1.342-1.852,2.713-2.72,4.111c0.223,0.104,0.354,0.264,0.229,0.535c-0.16,0.332-0.53,0.396-0.837,0.449
				c-0.153,0.254-0.303,0.512-0.457,0.77c0.158-0.013,0.304-0.034,0.371-0.047C122.813,270.439,123.425,270.038,124.044,269.806z"/>
			<path style="fill:#95C11F;stroke:#569024;stroke-width:0.9457;stroke-miterlimit:10;" d="M196.916,301.61
				c1.247,0.201,1.541,1.65,2.286,2.622c1.029,1.341,1.657,1.067,3.205,1.229c1.844,0.185,1.311,0.995,1.488,2.51
				c0.145,1.472,0.999,2.499,1.598,3.808c0.588,1.312,1.417,2.58,1.898,3.864c0.481,1.268,0.578,2.608,1.07,3.905
				c0.534,1.365,1.378,2.73,2.792,1.485c0.457-0.401,0.72-1.322,1.175-1.804c0.498-0.54,1.221-1.014,1.537-1.716
				c0.507-1.139,0.117-2.682,0.23-3.907c0.148-1.773,0.956-2.201,2.547-2.922c0.604-0.271,1.5-0.548,2.005-1.062
				c0.684-0.688,0.563-1.43,0.966-2.15c0.627-1.124,2.857-1.926,4.111-1.87c2.286,0.1,3.49,1.647,4.426,3.54
				c0.305,0.608,0.854,2.679,1.561,2.863c0.989,0.276,1.527-1.53,2.352,0.15c0.348,0.665-0.104,1.36,0.053,2.035
				c0.186,0.813,0.922,1.207,1.178,1.952c0.48,1.335-0.59,2.518-0.43,3.787c0.123,0.99,1.24,1.639,1.686,2.539
				c1.148,2.406,1.735,4.363,3.912,6.16c3.621,2.974,1.699-2.412,0.764-4.08c-1.15-2.071-4.209-2.781-4.104-5.695
				c0.039-1.269,0.722-2.16,0.415-3.459c1.162,0.086,2.567,1.241,3.327,2.092c0.32,0.375,0.597,1.123,1.041,1.377
				c0.588,0.347,1.073-0.089,1.514,0.491c0.309,0.416-0.374,1.302,0.385,1.625c0.51,0.215,1.134-0.488,1.471-0.788
				c0.882-0.77,2.324-1.706,2.928-2.705c0.852-1.432,0.263-3.041-0.633-4.275c-1.078-1.487-2.832-1.452-4.1-2.659
				c-2.285-2.184-1.123-6.055,2.391-4.726c0.549,0.215,0.375,0.708,1.16,0.808c0.805,0.111,1.604-0.634,2.182-1.002
				c0.537-0.349,0.939-0.667,1.535-0.866c0.668-0.221,1.404-0.049,2.045-0.269c1.082-0.367,2.3-1.925,2.818-2.912
				c0.51-0.968,1.245-2.162,1.738-3.221c0.492-1.05,0.613-2.396,0.094-3.476c-0.228-0.475-0.734-0.705-0.908-1.207
				c-0.199-0.575,0.162-1.309-0.12-1.885c-0.576-1.148-2.393-1.188-3.184-2.298c-1.078-1.482,0.137-1.864,0.529-3.155
				c0.038-0.086,0.303-0.385,0.355-0.498c-1.202-0.75-3.834,0.268-4.434-0.841c-0.514-0.96,0.707-2.186,1.629-2.31
				c0.803-0.104,0.763,0.304,1.24,0.51c0.635,0.255,0.859,0.468,1.818,0.436c0.642-0.027,1.459-0.337,2.046-0.295
				c0.991,0.061,0.573,0.34,1.228,1.062c0.947,1.057,2.313,1.189,2.781,2.712c0.093,0.322-0.045,1.244,0.134,1.478
				c0.507,0.743,3.112,0.882,3.901,0.524c3.339-1.493-3.072-4.232-3.955-4.846c-1.564-1.07-0.361-1.874-0.08-3.314
				c0.174-0.879-0.148-0.904,0.534-1.343c0.482-0.31,1.349-0.086,1.886-0.562c1.346-1.189,0.988-5.586,0.799-7.337
				c-0.322-2.685-3.741-4.272-6.038-5.101c-1.14-0.403-2.139-0.677-2.276-2.13c-0.061-0.778,0.283-0.963,0.488-1.61
				c0.17-0.567,0.092-1.545,0.316-2.014c0.615-1.224,2.581-0.793,3.926-0.793c0.967,0,1.834-0.316,2.676-0.379
				c0.174-0.012,0.341-0.004,0.506,0.014c-3.42-4.16-7.229-7.985-11.368-11.432c-1.588-0.099-2.483-0.714-4.222-1.247
				c-1.457-0.438-2.969-0.352-4.518-0.352c-0.748,0-3.018-0.425-3.649,0.032c-0.908,0.653,0.066,1.41-0.546,1.902
				c-1.338,1.073-4.921-0.047-6.279-0.459c-1.535-0.475-2.887-1.657-4.462-2.02c-2.794-0.633-6.028,0.568-8.847,0.016
				c-1.377-0.275-2.15-0.916-3.664-0.896c-1.348,0.012-2.724,0.604-4.074,0.508c0.1-1.192,1.885-1.335,2.246-2.625
				c-1.604,0.178-3.27-0.466-4.916-0.336c-1.602,0.134-2.875-0.398-4.303-0.412c-1.59-0.016-2.553,1.268-3.941,1.438
				c-1.416,0.171-3.035-0.409-4.584-0.338c0.479,2.395-2.18,1.952-4.142,2.506c0.429,2.219-2.18,1.697-3.379,2.099
				c0.505,1.45,1.735,1.168,1.562,3.281c-0.121,1.575-1.457,2.913-2.496,1.234c-0.951-1.545-0.174-6.893-3.542-6.261
				c-0.217,1.397,2.925,4.975-0.723,4.79c-2.218-0.098-4.079-2.379-6.415-2.11c0.305,0.443,0.787,0.789,1.273,1.23
				c-0.924,0.593-1.98,0.23-3.049,0.354c-0.827,0.095-1.537,0.505-2.338,0.546c-1.339,0.057-2.724-0.559-4.02-0.1
				c-0.58,0.204-0.789,0.943-1.271,1.102c-0.765,0.254-1.51-0.313-2.352,0.09c-0.907,0.433-1.605,1.47-2.553,1.976
				c-2.246,1.204-4.193-0.005-5.903-1.649c0.612-0.662,6.904,0.106,6.09-1.536c-0.666-1.354-5.809-0.794-7.146-1.137
				c-2.422-0.627-3.354-2.212-6.066-1.976c-2.965,0.252-8.673,1.988-10.023,5.097c-0.242,0.561,0.012,0.942-0.398,1.49
				c-0.84,1.137-2.463,1.209-3.729,1.476c-1.029,0.212-1.205,1.174-2.205,1.478c-0.054,1.007-0.118,2.983,0.643,3.741
				c1.016,0.994,3.047-0.824,4.246-0.537c0.893,0.213,0.695,0.911,0.922,1.543c0.215,0.599,1.205,1.524,1.807,1.746
				c0.799,0.299,1.83,0.052,2.283-0.676c0.412-0.642,0.174-1.369,0.735-1.915c0.505-0.485,0.907-0.731,1.016-1.498
				c0.151-1.135-0.519-0.772-1.138-1.397c-1.535-1.537,1.714-2.337,2.525-2.751c0.351-0.167,0.803-0.504,1.041-0.803
				c0.218-0.26,0.324-0.806,0.591-0.989c0.815-0.554,0.523,0.947,0.323,1.373c-0.537,1.145-1.643,2.342-0.403,3.563
				c1.057,1.038,2.257-0.046,3.405-0.137c0.588-0.049,1.541-0.163,2.088,0.012c0.373,0.125,1.093,1.009,0.867,1.417
				c-0.361,0.643-1.669,0.081-2.15-0.025c-0.294-0.068-1.871-0.243-2.068,0.012c-0.364,0.46,0.371,0.483,0.531,0.73
				c0.121,0.19,0.077,0.632,0.066,0.866c-0.015,0.634-0.337,1.236-1.068,0.995c-0.387-0.126-0.885-0.81-1.402-0.374
				c-0.336,0.262-0.377,1.277-0.336,1.665c0.055,0.503,0.374,1.351-0.262,1.744c-0.352,0.206-1.311,0.083-1.689-0.016
				c-0.535-0.142-0.921-0.497-1.535-0.393c-0.498,0.08-1.164,0.52-1.67,0.666c-1.259,0.364-2.994,0.197-4.344,0.131
				c-0.256-0.567-0.721-1.266-0.549-1.939c0.133-0.482,0.84-1.082,0.322-1.603c-0.35-0.338-1.309-0.154-1.645,0.222
				c-0.574,0.643-0.105,1.047,0.107,1.664c0.174,0.489,0.187,1.315-0.158,1.73c-0.467,0.571-1.299,0.231-1.965,0.388
				c-0.335,0.073-0.813,0.184-1.018,0.481c-0.198,0.3-0.025,0.74-0.457,0.993c-0.547,0.314-1.25,0.174-1.787,0.626
				c-0.963,0.797-1.869,1.791-2.9,2.452c-0.696,0.438-1.59,0.506-2.389,0.683c-0.846,0.174-1.393,0.352-2.3,0.406
				c-0.015,0.615-0.054,1.014,0.319,1.483c0.405,0.497,0.87,0.897,1.217,1.438c0.764,1.167,0.786,2.479-0.801,2.9
				c-1.406,0.379-2.971-0.274-4.426-0.201l0,0c-0.313,0.673-0.619,1.348-0.913,2.03c0.04,0.036,0.082,0.075,0.114,0.105
				c0.268,0.276,0.734,0.505,0.965,0.804c0.505,0.727-0.109,2.145-0.485,2.82c-0.175,0.336-0.892,0.853-0.947,1.193
				c-0.257,1.378,1.515,2.2,2.514,2.422c0.868,0.18,2.495,0.668,3.378,0.4c0.977-0.295,1.909-1.76,2.273-2.707
				c0.563-1.438,0.343-2.156,1.775-3.025c0.51-0.311,1.19-0.327,1.643-0.823c0.44-0.495,0.39-1.376,0.867-1.783
				c0.721-0.602,2.475-0.181,3.382-0.609c1.485-0.687,1.657-1.114,3.211-0.063c1.36,0.919,2.59,2.004,3.858,2.951
				c0.975,0.72,0.642,0.647,0.922,1.763c0.188,0.682,0.658,1.756,1.217,2.165c0.748-0.716,1.336-1.64,1.096-2.669
				c0.506-0.031,1.059-0.008,1.563-0.045c0.694-2.864-6.695-2.759-6.252-6.086c0.907-0.246,1.081,0.303,1.762,0.588
				c0.484,0.214,1.242,0.192,1.695,0.454c0.656,0.37,0.645,0.823,1.189,1.322c0.389,0.364,0.895,0.343,1.352,0.663
				c1.87,1.304,0.144,4.976,4.155,4.711c-1.394,0.75,0.092,2.121,0.4,3.154c0.055-1.033,0.962-1.721,0.935-2.908
				c-0.013-1.316-0.681-1.672,0.819-2.143c0.957-0.311,2.003-0.328,2.935-0.675c1.431-0.525,1.232-0.571,0.847-2.014
				c-0.147-0.541-0.574-0.445-0.323-1.191c0.131-0.369,0.973-0.857,1.231-1.24c0.559-0.852,0.877-2.555,2.24-2.623
				c1.434-0.066,0.885,1.395,1.725,2.023c0.734,0.553,2.271,0.336,2.567-0.549c-2.311-0.68,0.552-1.261,1.228-1.602
				c0.441-0.21,1.069-1.184,1.591-0.711c0.612,0.579-0.562,1.457-0.63,1.785c-0.292,1.429,0.815,1.383,1.752,2.243
				c0.961,0.904,1.393,2.366,2.096,3.459c-1.412,0.085-2.991,0.177-4.258-0.409c-1.633-0.75-2.277-1.385-4.174-0.734
				c-0.586,0.193-1.174,0.501-1.717,0.785c-0.148,0.087-0.283,0.53-0.553,0.654c-0.281,0.141-0.761-0.099-1.072,0.016
				c-1.469,0.546-1.802,1.117-3.453,1.202c0.092,0.663,0.772,0.428,1.013,0.947c0.201,0.398,0,1.216,0,1.651
				c-0.013,1.45,0.134,1.465,1.632,1.53c1.775,0.092,2.267-0.015,3.752,1.042c1.734,1.249,1.721-0.162,3.074-1.057
				c1.588,0.623,0.011,2.131-0.377,2.974c-0.37,0.81-0.063,1.844-0.414,2.539c-0.679,1.419-3.527,0.667-4.838,0.667
				c-0.879,0-1.957,0.161-2.763-0.161c-0.935-0.381-1.604-1.144-2.714-1.448c-1.415-0.37-4.392-0.93-5.093,0.942
				c0.271,0.091,0.482,0.429,0.687,0.526c-0.575,0.93-2.446,0.349-3.198-0.16c-1.105-0.76-1.306-1.072-2.683-1.465
				c-1.337-0.396-2.674-1.007-3.352-2.254c-0.604-1.116-0.229-2.28-1.502-2.835c-0.663-0.302-0.811-0.234-1.473,0.012
				c-0.822,0.315-0.662,0.715-1.73,0.819c-1.19,0.12-2.429-0.067-3.625,0c-1.094,0.058-2.256,0.158-3.176,0.688
				c-0.563,0.324-0.734,0.9-1.645,1.053c-0.563,0.094-1.309,0.049-1.872-0.005c-1.335-0.128-3.553-1.236-4.634,0.309
				c-0.535,0.751-0.106,1.179-0.883,1.855c-0.642,0.563-1.631,0.758-2.084,1.551c-0.978,1.657,0.517,2.699-1.363,3.89
				c-0.666,0.417-1.204,0.737-1.67,1.075c-1.015,5.26-1.551,10.688-1.551,16.244c0,2.945,0.15,5.853,0.439,8.721
				c1.492,1.567,3.615,3.093,5.051,3.688c1.688,0.71,2.555,0.194,3.834-0.488c1.285-0.663,2.526-0.486,3.928-0.419
				c2.209,0.1,3.465-2.534,6.029-1.318c1.229,0.581,1.083,1.48,2.539,1.752c1.323,0.241,2.486-0.037,3.222,1.418
				c0.931,1.842-0.284,3.814-0.339,5.684c-0.039,1.883,1.7,1.893,2.341,3.572c0.482,1.264,0.482,2.66,1.044,3.891
				c1.121,2.473,1.575,3.806,0.429,6.561c-0.858,2.086-1.296,4.605-0.097,6.691c1.373,2.385,1.697,4.692,2.083,7.404
				c0.176,1.249,0.105,2.485,0.589,3.574c0.586,1.315,1.886,2.523,2.235,3.887c0.355,1.472-0.27,2.994,0.411,4.433
				c0.708,1.481,1.67,1.233,3.086,1.029c2.284-0.321,4.916,0.119,6.975-1.137c0.991-0.615,1.578-1.331,2.233-2.314
				c0.868-1.294,1.453-1.717,2.729-2.577c1.235-0.835,1.957-1.816,1.985-3.314c0.041-1.78-0.427-2.273,1.414-3.216
				c1.164-0.601,2.179-1.094,2.073-2.677c-0.078-1.181-0.935-2.311-0.52-3.611c1.001-3.075,5.506-3.902,6.305-6.976
				c0.694-2.64-0.531-6.216-0.93-8.825c-0.85-5.478,3.94-7.831,7.44-11.086c1.856-1.73,2.952-4.562,4.196-6.76
				c0.521-0.894,1.229-1.916,0.786-2.947c-0.359-0.865-1.512-1.583-2.418-1.441c-1.376,0.219-2.206,0.733-3.742,0.666
				c-2.967-0.12-3.299-2.453-5.494-4.016c-2.058-1.472-2.495-3.753-4.025-5.729c-1.037-1.355-0.646-2-0.795-3.642
				c-0.122-1.468-1.041-1.69-2.139-2.537c-0.865-0.665-1.097-1.23-1.47-2.153c-0.414-1.022-1.446-2.402-1.613-3.446
				c-0.191-1.145,0.771-1.406,1.596-0.693c0.26,0.207-0.018,0.865,0.581,1.034c0.388,0.104,0.653-0.448,1.014-0.626
				c0.375,1.311,0.562,2.732,1.137,3.974c0.463,1.02,1.27,2.004,1.709,3.118c0.484,1.195,0.736,1.622,1.766,2.507
				c1.043,0.902,1.987,2.04,2.619,3.282c0.827,1.625,1.229,6.082,3.384,6.66c1.009,0.272,2.319-0.96,3.35-1.178
				c1.511-0.321,2.08-0.453,3.192-1.605c1.16-1.184,2.681-1.817,4.188-2.547c0.865-0.419,1.943-0.471,2.602-1.341
				c0.521-0.688,0.41-1.535,0.748-2.287c0.502-1.142,2.685-2.528,1.723-4.039c-0.908-1.417-2.859-0.67-3.382-2.651
				c-1.026-0.206-1.778,0.613-2.606,1.053c-1.146,0.606-1.936,0.703-3.194,0.136c-1.748-0.79-1.41-1.578-1.945-3.087
				c-0.35-0.983-1.421-1.511-1.191-2.657c1.947-0.107,2.379,0.214,3.476,1.748c0.744,1.068,1.307,1.983,2.67,2.117
				c1.189,0.108,2.366-0.655,3.484-0.404c1.15,0.266,1.85,1.429,3.102,1.74c1.258,0.323,2.637,0.04,3.865,0.527
				c0.465,0.186,0.879,0.656,1.358,0.787C195.729,301.999,196.409,301.522,196.916,301.61z"/>
			<path style="fill:#95C11F;stroke:#569024;stroke-width:0.9457;stroke-miterlimit:10;" d="M234.329,329.438
				c0.082,0.275,0.322,0.534,0.496,0.756c0.319,0.419,0.748,0.809,1.032,1.256c0.171,0.27,0.183,0.498,0.292,0.848
				c0.319,1.02,0.799,2.08,1.559,2.85c0.618,0.617,1.233,1.233,1.75,1.983c0.259,0.371,0.456,0.94,1.045,0.871
				c0.468-0.051,0.84-0.746,1.137-1.075c0.212-0.214,0.291-0.152,0.412-0.495c0.096-0.326,0.067-0.846,0.043-1.197
				c-0.07-0.832-0.511-1.554-1.165-2.08c-0.603-0.496-1.71-1.044-2.085-1.767c-0.268-0.493-0.227-1.001-0.602-1.462
				c-0.401-0.482-1.029-0.649-1.51-1.02c-0.411-0.328-0.855-0.766-1.238-1.124c-0.67-0.629-0.818-1.689-1.822-1.95
				c-0.466-0.123-1.842-0.242-1.896-0.95c-0.239-0.147-0.924-0.309-0.838,0.222c0.037,0.213,0.401,0.421,0.533,0.561
				c0.201,0.212,0.347,0.462,0.529,0.679c0.336,0.389,0.699,0.696,1.019,1.094c0.375,0.441,1.054,0.793,1.238,1.305
				C234.357,328.976,234.278,329.205,234.329,329.438z"/>
			<path style="fill:#95C11F;stroke:#569024;stroke-width:0.9457;stroke-miterlimit:10;" d="M247.665,339.565
				c-0.226,0.022-0.406,0.137-0.613,0.202c-0.912,0.287-1.872-0.343-2.725-0.598c-0.468-0.133-1.793-0.587-2.072,0.079
				c-0.053,0.141-0.027,0.316,0.015,0.458c0.172,0.712,1.456,0.651,1.989,0.685c0.922,0.056,1.695,0.376,2.564,0.564
				c1.03,0.227,2.057,0.514,3.129,0.623c0.589,0.051,1.603,0.377,2.121,0.265c1.445-0.316-0.933-1.057-1.389-1.249
				C249.708,340.181,248.771,339.465,247.665,339.565z"/>
			<path style="fill:#95C11F;stroke:#569024;stroke-width:0.9457;stroke-miterlimit:10;" d="M253.419,334.912
				c0.138-0.852,0.111-1.562,0.752-2.226c0.398-0.436,0.976-0.593,1.218-1.176c0.157-0.39,0.013-1.003,0.292-1.344
				c0.336-0.384,0.922-0.097,1.031-0.662c0.17-0.947-2.086-1.27-1.178-2.685c0.348-0.528,0.735-0.439,0.775-1.204
				c0.027-0.54-0.096-0.802-0.521-1.155c-0.188-0.159-0.439-0.208-0.6-0.401c-0.145-0.156-0.134-0.508-0.299-0.619
				c-0.412-0.281-0.84,0.002-0.934,0.44h-0.049c-0.098,0.742-0.885,1.343-1.515,1.58c-0.452,0.176-1.116,0.191-1.358,0.643
				c-0.217,0.409,0,0.765-0.321,1.201c-0.733,0.954-2.017,0.853-2.835,1.525c-0.32,0.256-0.43,0.543-0.814,0.676
				c-0.387,0.126-0.892-0.073-1.26-0.128c-0.183,0.693,0.856,1.19,1.057,1.804c0.229,0.634-0.039,1.314,0.137,1.939
				c0.131,0.459,0.801,1.477,1.271,1.654c0.609,0.242,1.386-0.012,2.027,0.233c0.521,0.194,1.002,0.438,1.523,0.642
				c0.189,0.078,0.683,0.396,0.854,0.415C253.308,336.136,253.343,335.471,253.419,334.912z"/>
			<path style="fill:#95C11F;stroke:#569024;stroke-width:0.9457;stroke-miterlimit:10;" d="M267.214,324.82
				c0.117,0.402,0.962,1.044,1.403,1.136c0.237,0.049,0.549-0.163,0.814-0.073c0.468,0.161,0.348,0.515,0.604,0.823
				c0.277,0.332,0.21,0.438,0.732,0.373c0.411-0.055,0.75-0.295,1.215-0.326c1.08-0.075,1.018-0.055,1.125-1.207
				c0.105-1.225,0.802-0.964,1.414-1.873c0.56-0.807,0.08-1.673-0.521-2.271c-0.253-0.246-0.374-0.381-0.479-0.667
				c-0.068-0.161-0.041-0.479-0.148-0.611c-0.229-0.287-1.07-0.291-1.547-0.264c-0.629,0.045-0.564,0.272-1.008,0.59
				c-0.463,0.33-1.052,0.384-1.588,0.557c-0.042,0.035,0.028,0.307,0.028,0.355c-0.013,0.199-0.159,0.218-0.347,0.247
				c-0.123,0.016-1.263-0.09-1.263-0.067c-0.086,0.613,0.159,1.115,0.159,1.663C267.827,323.892,267.005,324.081,267.214,324.82z"/>
			<path style="fill:#95C11F;stroke:#569024;stroke-width:0.9457;stroke-miterlimit:10;" d="M278.112,333.455
				c-1.08-0.056-1.226,0.314-1.801,0.987c-0.385,0.447-0.764,0.76-1.321,0.493c-0.817-0.379-0.88-1.321-1.281-2.01
				c-0.069-0.114-0.149-0.214-0.242-0.309c-0.282-0.274-0.685-0.333-1.054-0.35c-0.26-0.009-0.656-0.03-0.857,0.158
				c-0.174,0.172,0.04,0.414,0.17,0.538c0.35,0.354,0.926,0.214,1.273,0.675c0.279,0.39,0.199,0.97,0.174,1.479
				c-0.242,0.007-0.482,0.009-0.722,0.018c0.157,0.772,1.028,1.116,1.737,1.198c0.667,0.07,1.096,0.338,1.67,0.6
				c0.481,0.216,1.078,0.32,1.605,0.515c0.374-1.308,0.717-2.625,1.025-3.956C278.363,333.478,278.239,333.459,278.112,333.455z"/>
			<path style="fill:#95C11F;stroke:#569024;stroke-width:0.9457;stroke-miterlimit:10;" d="M274.307,345.459
				c-0.598,0-1.245-0.068-1.831,0c-1.242,0.133-2.379,0.913-3.404,1.581c-0.27,0.173-0.589,0.336-0.82,0.538
				c-0.559,0.483-0.307,0.546-0.382,0.972c-0.122,0.732-0.538,1.663-1.59,1.064c-0.817-0.469-0.376-1.584-1.672-1.412
				c-0.788,0.104-1.286,0.719-1.776,1.33c-0.392,0.468-0.362,0.564-0.924,0.877c-0.63,0.355-0.949,0.255-0.961,0.866
				c-0.012,0.544,0.772,0.678-0.027,1.011c-0.465,0.2-1.064-0.227-1.4-0.501c0.041,1.744-1.563,3.405-3.249,3.724
				c-1.271,0.232-2.351,0.159-3.54,0.641c-0.776,0.32-1.647,0.525-2.407,0.939c-0.614,0.336-1.696,0.623-2.204,1.1
				c-0.67,0.643-0.375,1.545-0.228,2.308c0.352,1.847,0.559,3.776,0.47,5.625c-0.07,1.365,0.25,2.889,0.07,4.194
				c-0.178,1.284-1.58,2.049-1.771,3.409c1.39,0.855,2.687-0.227,3.879-0.821c1.762-0.881,3.952-0.2,5.798-0.955
				c1.445-0.593,1.786-1.994,3.415-1.959c6.283-7.206,11.374-15.48,14.97-24.51C274.574,345.468,274.431,345.459,274.307,345.459z"
				/>
		</g>
		<path style="opacity:0.4;fill:#DADADA;" d="M263.506,292.993c0,25.881-20.977,46.861-46.858,46.861
			c-25.881,0-46.861-20.98-46.861-46.861c0-25.878,20.98-46.859,46.861-46.859C242.528,246.134,263.506,267.115,263.506,292.993z"/>
	</g>
	<g>
		<g>
			<path style="fill:#706F6F;" d="M146.473,240.73c-1.509,1.335-2.946,2.715-4.329,4.134l9.541,9.543
				c1.195-1.234,2.445-2.433,3.75-3.591c27.475-24.407,69.168-22.591,94.44,3.634l9.538-9.542
				C229.128,213.663,179.32,211.548,146.473,240.73z"/>
			<path style="fill:#706F6F;" d="M233.848,270.475l8.341-8.34c-21.349-22.295-56.689-23.881-79.957-3.204
				c-1.074,0.949-2.102,1.931-3.081,2.942l8.337,8.341c0.824-0.849,1.684-1.674,2.573-2.469
				C188.64,251.243,216.88,252.567,233.848,270.475z"/>
			<path style="fill:#706F6F;" d="M225.94,278.383c-12.816-13.751-34.328-14.84-48.459-2.286c-0.73,0.648-1.419,1.328-2.083,2.023
				l6.688,6.688c0.589-0.639,1.209-1.259,1.875-1.848c10.367-9.21,26.197-8.334,35.496,1.905L225.94,278.383z"/>
			<path style="fill:#706F6F;" d="M188.381,297.035c0,6.849,5.552,12.4,12.398,12.4c6.85,0,12.397-5.552,12.397-12.4
				c0-6.847-5.548-12.396-12.397-12.396C193.933,284.639,188.381,290.188,188.381,297.035z"/>
		</g>
		<g>
			<path style="fill:#FFFFFF;" d="M140.189,233.97c-1.504,1.336-2.945,2.717-4.325,4.137l9.538,9.543
				c1.198-1.233,2.449-2.43,3.752-3.592c27.469-24.408,69.166-22.59,94.438,3.635l9.545-9.545
				C222.847,206.904,173.034,204.79,140.189,233.97z"/>
			<path style="fill:#FFFFFF;" d="M227.564,263.718l8.34-8.342c-21.346-22.293-56.685-23.881-79.956-3.205
				c-1.07,0.95-2.098,1.934-3.078,2.943l8.338,8.342c0.822-0.848,1.678-1.673,2.573-2.47
				C182.356,244.485,210.599,245.809,227.564,263.718z"/>
			<path style="fill:#FFFFFF;" d="M219.659,271.626c-12.818-13.753-34.33-14.842-48.461-2.286c-0.73,0.648-1.42,1.326-2.081,2.022
				l6.69,6.688c0.585-0.641,1.209-1.26,1.873-1.847c10.365-9.212,26.197-8.337,35.496,1.904L219.659,271.626z"/>
			<path style="fill:#FFFFFF;" d="M182.1,290.278c0,6.847,5.555,12.397,12.399,12.397c6.85,0,12.398-5.551,12.398-12.397
				c0-6.849-5.549-12.399-12.398-12.399C187.654,277.879,182.1,283.43,182.1,290.278z"/>
		</g>
	</g>
</g>
</svg>
